# cornell-box/1.0 -- baffle (generated by tools/generate_cornell.py; FROZEN)
v -1.000000 3.400000 0.100000
v 1.000000 3.400000 0.100000
v 1.000000 5.400000 0.100000
v -1.000000 5.400000 0.100000
v 1.000000 3.400000 -0.100000
v -1.000000 3.400000 -0.100000
v -1.000000 5.400000 -0.100000
v 1.000000 5.400000 -0.100000
v 1.000000 3.400000 0.100000
v 1.000000 3.400000 -0.100000
v 1.000000 5.400000 -0.100000
v 1.000000 5.400000 0.100000
v -1.000000 3.400000 -0.100000
v -1.000000 3.400000 0.100000
v -1.000000 5.400000 0.100000
v -1.000000 5.400000 -0.100000
v -1.000000 5.400000 0.100000
v 1.000000 5.400000 0.100000
v 1.000000 5.400000 -0.100000
v -1.000000 5.400000 -0.100000
v -1.000000 3.400000 -0.100000
v 1.000000 3.400000 -0.100000
v 1.000000 3.400000 0.100000
v -1.000000 3.400000 0.100000
vn 0.000000 0.000000 1.000000
vn 0.000000 0.000000 -1.000000
vn 1.000000 0.000000 0.000000
vn -1.000000 0.000000 0.000000
vn 0.000000 1.000000 0.000000
vn 0.000000 -1.000000 0.000000
f 1//1 2//1 3//1
f 1//1 3//1 4//1
f 5//2 6//2 7//2
f 5//2 7//2 8//2
f 9//3 10//3 11//3
f 9//3 11//3 12//3
f 13//4 14//4 15//4
f 13//4 15//4 16//4
f 17//5 18//5 19//5
f 17//5 19//5 20//5
f 21//6 22//6 23//6
f 21//6 23//6 24//6
