# cornell-box/1.0 -- block_tall (generated by tools/generate_cornell.py; FROZEN)
v -1.550000 0.000000 0.350000
v -0.550000 0.000000 0.350000
v -0.550000 3.300000 0.350000
v -1.550000 3.300000 0.350000
v -0.550000 0.000000 -2.050000
v -1.550000 0.000000 -2.050000
v -1.550000 3.300000 -2.050000
v -0.550000 3.300000 -2.050000
v -0.550000 0.000000 0.350000
v -0.550000 0.000000 -2.050000
v -0.550000 3.300000 -2.050000
v -0.550000 3.300000 0.350000
v -1.550000 0.000000 -2.050000
v -1.550000 0.000000 0.350000
v -1.550000 3.300000 0.350000
v -1.550000 3.300000 -2.050000
v -1.550000 3.300000 0.350000
v -0.550000 3.300000 0.350000
v -0.550000 3.300000 -2.050000
v -1.550000 3.300000 -2.050000
v -1.550000 0.000000 -2.050000
v -0.550000 0.000000 -2.050000
v -0.550000 0.000000 0.350000
v -1.550000 0.000000 0.350000
vn 0.000000 0.000000 1.000000
vn 0.000000 0.000000 -1.000000
vn 1.000000 0.000000 0.000000
vn -1.000000 0.000000 0.000000
vn 0.000000 1.000000 0.000000
vn 0.000000 -1.000000 0.000000
f 1//1 2//1 3//1
f 1//1 3//1 4//1
f 5//2 6//2 7//2
f 5//2 7//2 8//2
f 9//3 10//3 11//3
f 9//3 11//3 12//3
f 13//4 14//4 15//4
f 13//4 15//4 16//4
f 17//5 18//5 19//5
f 17//5 19//5 20//5
f 21//6 22//6 23//6
f 21//6 23//6 24//6
