# Generated by tools/generate_models.py -- do not edit by hand.
# Deterministic output; regenerate with: python3 tools/generate_models.py
v 0.000000 -0.433521 0.701452
v 0.149371 -0.249374 0.495811
v 0.000000 -0.183413 0.645642
v 0.149371 -0.249374 0.495811
v 0.204231 -0.126222 0.330453
v 0.139319 -0.086104 0.504062
v 0.000000 -0.183413 0.645642
v 0.139319 -0.086104 0.504062
v 0.000000 0.000000 0.628731
v 0.149371 -0.249374 0.495811
v 0.139319 -0.086104 0.504062
v 0.000000 -0.183413 0.645642
v 0.204231 -0.126222 0.330453
v 0.345784 -0.079112 0.341713
v 0.280136 0.000000 0.453270
v 0.345784 -0.079112 0.341713
v 0.555923 0.000000 0.343579
v 0.434491 0.099408 0.429375
v 0.280136 0.000000 0.453270
v 0.434491 0.099408 0.429375
v 0.315264 0.194844 0.510107
v 0.345784 -0.079112 0.341713
v 0.434491 0.099408 0.429375
v 0.280136 0.000000 0.453270
v 0.000000 0.000000 0.628731
v 0.167169 0.103316 0.604824
v 0.000000 0.201999 0.711068
v 0.167169 0.103316 0.604824
v 0.315264 0.194844 0.510107
v 0.191650 0.319959 0.636151
v 0.000000 0.201999 0.711068
v 0.191650 0.319959 0.636151
v 0.000000 0.469664 0.759933
v 0.167169 0.103316 0.604824
v 0.191650 0.319959 0.636151
v 0.000000 0.201999 0.711068
v 0.204231 -0.126222 0.330453
v 0.280136 0.000000 0.453270
v 0.139319 -0.086104 0.504062
v 0.280136 0.000000 0.453270
v 0.315264 0.194844 0.510107
v 0.167169 0.103316 0.604824
v 0.139319 -0.086104 0.504062
v 0.167169 0.103316 0.604824
v 0.000000 0.000000 0.628731
v 0.280136 0.000000 0.453270
v 0.167169 0.103316 0.604824
v 0.139319 -0.086104 0.504062
v 0.000000 -0.433521 0.701452
v 0.000000 -0.183413 0.645642
v -0.222682 -0.371767 0.739156
v 0.000000 -0.183413 0.645642
v 0.000000 0.000000 0.628731
v -0.181893 -0.112416 0.658094
v -0.222682 -0.371767 0.739156
v -0.181893 -0.112416 0.658094
v -0.360994 -0.223106 0.584100
v 0.000000 -0.183413 0.645642
v -0.181893 -0.112416 0.658094
v -0.222682 -0.371767 0.739156
v 0.000000 0.000000 0.628731
v 0.000000 0.201999 0.711068
v -0.169938 0.105028 0.614842
v 0.000000 0.201999 0.711068
v 0.000000 0.469664 0.759933
v -0.226609 0.378323 0.752192
v -0.169938 0.105028 0.614842
v -0.226609 0.378323 0.752192
v -0.328864 0.203249 0.532114
v 0.000000 0.201999 0.711068
v -0.226609 0.378323 0.752192
v -0.169938 0.105028 0.614842
v -0.360994 -0.223106 0.584100
v -0.286765 0.000000 0.463995
v -0.404471 -0.092539 0.399708
v -0.286765 0.000000 0.463995
v -0.328864 0.203249 0.532114
v -0.356753 0.081622 0.352552
v -0.404471 -0.092539 0.399708
v -0.356753 0.081622 0.352552
v -0.473021 0.000000 0.292343
v -0.286765 0.000000 0.463995
v -0.356753 0.081622 0.352552
v -0.404471 -0.092539 0.399708
v 0.000000 0.000000 0.628731
v -0.169938 0.105028 0.614842
v -0.181893 -0.112416 0.658094
v -0.169938 0.105028 0.614842
v -0.328864 0.203249 0.532114
v -0.286765 0.000000 0.463995
v -0.181893 -0.112416 0.658094
v -0.286765 0.000000 0.463995
v -0.360994 -0.223106 0.584100
v -0.169938 0.105028 0.614842
v -0.286765 0.000000 0.463995
v -0.181893 -0.112416 0.658094
v 0.000000 -0.433521 0.701452
v 0.128015 -0.552941 0.559529
v 0.149371 -0.249374 0.495811
v 0.128015 -0.552941 0.559529
v 0.226855 -0.593915 0.367060
v 0.216730 -0.299514 0.350677
v 0.149371 -0.249374 0.495811
v 0.216730 -0.299514 0.350677
v 0.204231 -0.126222 0.330453
v 0.128015 -0.552941 0.559529
v 0.216730 -0.299514 0.350677
v 0.149371 -0.249374 0.495811
v 0.226855 -0.593915 0.367060
v 0.351254 -0.698371 0.210395
v 0.300027 -0.351278 0.217102
v 0.351254 -0.698371 0.210395
v 0.440508 -0.712757 0.000000
v 0.428586 -0.433692 0.099225
v 0.300027 -0.351278 0.217102
v 0.428586 -0.433692 0.099225
v 0.404231 -0.249829 0.154403
v 0.351254 -0.698371 0.210395
v 0.428586 -0.433692 0.099225
v 0.300027 -0.351278 0.217102
v 0.204231 -0.126222 0.330453
v 0.253718 -0.156806 0.216701
v 0.345784 -0.079112 0.341713
v 0.253718 -0.156806 0.216701
v 0.404231 -0.249829 0.154403
v 0.510671 -0.153847 0.256847
v 0.345784 -0.079112 0.341713
v 0.510671 -0.153847 0.256847
v 0.555923 0.000000 0.343579
v 0.253718 -0.156806 0.216701
v 0.510671 -0.153847 0.256847
v 0.345784 -0.079112 0.341713
v 0.226855 -0.593915 0.367060
v 0.300027 -0.351278 0.217102
v 0.216730 -0.299514 0.350677
v 0.300027 -0.351278 0.217102
v 0.404231 -0.249829 0.154403
v 0.253718 -0.156806 0.216701
v 0.216730 -0.299514 0.350677
v 0.253718 -0.156806 0.216701
v 0.204231 -0.126222 0.330453
v 0.300027 -0.351278 0.217102
v 0.253718 -0.156806 0.216701
v 0.216730 -0.299514 0.350677
v 0.000000 -0.433521 0.701452
v -0.141161 -0.609721 0.616985
v 0.128015 -0.552941 0.559529
v -0.141161 -0.609721 0.616985
v -0.211239 -0.553032 0.341792
v 0.000000 -0.694671 0.429331
v 0.128015 -0.552941 0.559529
v 0.000000 -0.694671 0.429331
v 0.226855 -0.593915 0.367060
v -0.141161 -0.609721 0.616985
v 0.000000 -0.694671 0.429331
v 0.128015 -0.552941 0.559529
v -0.211239 -0.553032 0.341792
v -0.247527 -0.492141 0.148265
v -0.114699 -0.671463 0.185588
v -0.247527 -0.492141 0.148265
v -0.257204 -0.416165 0.000000
v -0.171706 -0.604432 0.000000
v -0.114699 -0.671463 0.185588
v -0.171706 -0.604432 0.000000
v 0.000000 -0.821828 0.000000
v -0.247527 -0.492141 0.148265
v -0.171706 -0.604432 0.000000
v -0.114699 -0.671463 0.185588
v 0.226855 -0.593915 0.367060
v 0.138665 -0.811762 0.224365
v 0.351254 -0.698371 0.210395
v 0.138665 -0.811762 0.224365
v 0.000000 -0.821828 0.000000
v 0.259314 -0.912825 0.000000
v 0.351254 -0.698371 0.210395
v 0.259314 -0.912825 0.000000
v 0.440508 -0.712757 0.000000
v 0.138665 -0.811762 0.224365
v 0.259314 -0.912825 0.000000
v 0.351254 -0.698371 0.210395
v -0.211239 -0.553032 0.341792
v -0.114699 -0.671463 0.185588
v 0.000000 -0.694671 0.429331
v -0.114699 -0.671463 0.185588
v 0.000000 -0.821828 0.000000
v 0.138665 -0.811762 0.224365
v 0.000000 -0.694671 0.429331
v 0.138665 -0.811762 0.224365
v 0.226855 -0.593915 0.367060
v -0.114699 -0.671463 0.185588
v 0.138665 -0.811762 0.224365
v 0.000000 -0.694671 0.429331
v 0.000000 -0.433521 0.701452
v -0.222682 -0.371767 0.739156
v -0.141161 -0.609721 0.616985
v -0.222682 -0.371767 0.739156
v -0.360994 -0.223106 0.584100
v -0.325753 -0.450179 0.527079
v -0.141161 -0.609721 0.616985
v -0.325753 -0.450179 0.527079
v -0.211239 -0.553032 0.341792
v -0.222682 -0.371767 0.739156
v -0.325753 -0.450179 0.527079
v -0.141161 -0.609721 0.616985
v -0.360994 -0.223106 0.584100
v -0.404471 -0.092539 0.399708
v -0.416615 -0.257482 0.355831
v -0.404471 -0.092539 0.399708
v -0.473021 0.000000 0.292343
v -0.552875 -0.166562 0.278075
v -0.416615 -0.257482 0.355831
v -0.552875 -0.166562 0.278075
v -0.478658 -0.295827 0.182831
v -0.404471 -0.092539 0.399708
v -0.552875 -0.166562 0.278075
v -0.416615 -0.257482 0.355831
v -0.211239 -0.553032 0.341792
v -0.319966 -0.374623 0.231529
v -0.247527 -0.492141 0.148265
v -0.319966 -0.374623 0.231529
v -0.478658 -0.295827 0.182831
v -0.364110 -0.368448 0.084298
v -0.247527 -0.492141 0.148265
v -0.364110 -0.368448 0.084298
v -0.257204 -0.416165 0.000000
v -0.319966 -0.374623 0.231529
v -0.364110 -0.368448 0.084298
v -0.247527 -0.492141 0.148265
v -0.360994 -0.223106 0.584100
v -0.416615 -0.257482 0.355831
v -0.325753 -0.450179 0.527079
v -0.416615 -0.257482 0.355831
v -0.478658 -0.295827 0.182831
v -0.319966 -0.374623 0.231529
v -0.325753 -0.450179 0.527079
v -0.319966 -0.374623 0.231529
v -0.211239 -0.553032 0.341792
v -0.416615 -0.257482 0.355831
v -0.319966 -0.374623 0.231529
v -0.325753 -0.450179 0.527079
v -0.304216 0.492232 0.000000
v -0.304986 0.606380 0.182681
v -0.142524 0.501704 0.000000
v -0.304986 0.606380 0.182681
v -0.213881 0.559947 0.346066
v -0.115807 0.677944 0.187379
v -0.142524 0.501704 0.000000
v -0.115807 0.677944 0.187379
v 0.000000 0.576510 0.000000
v -0.304986 0.606380 0.182681
v -0.115807 0.677944 0.187379
v -0.142524 0.501704 0.000000
v -0.213881 0.559947 0.346066
v -0.140809 0.608203 0.615450
v 0.000000 0.547697 0.338495
v -0.140809 0.608203 0.615450
v 0.000000 0.469664 0.759933
v 0.117024 0.505464 0.511486
v 0.000000 0.547697 0.338495
v 0.117024 0.505464 0.511486
v 0.165932 0.434415 0.268483
v -0.140809 0.608203 0.615450
v 0.117024 0.505464 0.511486
v 0.000000 0.547697 0.338495
v 0.000000 0.576510 0.000000
v 0.119594 0.700117 0.193508
v 0.178017 0.626646 0.000000
v 0.119594 0.700117 0.193508
v 0.165932 0.434415 0.268483
v 0.290533 0.577645 0.174024
v 0.178017 0.626646 0.000000
v 0.290533 0.577645 0.174024
v 0.338853 0.548276 0.000000
v 0.119594 0.700117 0.193508
v 0.290533 0.577645 0.174024
v 0.178017 0.626646 0.000000
v -0.213881 0.559947 0.346066
v 0.000000 0.547697 0.338495
v -0.115807 0.677944 0.187379
v 0.000000 0.547697 0.338495
v 0.165932 0.434415 0.268483
v 0.119594 0.700117 0.193508
v -0.115807 0.677944 0.187379
v 0.119594 0.700117 0.193508
v 0.000000 0.576510 0.000000
v 0.000000 0.547697 0.338495
v 0.119594 0.700117 0.193508
v -0.115807 0.677944 0.187379
v -0.304216 0.492232 0.000000
v -0.435993 0.441187 0.100940
v -0.304986 0.606380 0.182681
v -0.435993 0.441187 0.100940
v -0.294850 0.182227 0.112623
v -0.351321 0.411334 0.254218
v -0.304986 0.606380 0.182681
v -0.351321 0.411334 0.254218
v -0.213881 0.559947 0.346066
v -0.435993 0.441187 0.100940
v -0.351321 0.411334 0.254218
v -0.304986 0.606380 0.182681
v -0.294850 0.182227 0.112623
v -0.309334 0.093192 0.155583
v -0.375222 0.231900 0.320478
v -0.309334 0.093192 0.155583
v -0.473021 0.000000 0.292343
v -0.356753 0.081622 0.352552
v -0.375222 0.231900 0.320478
v -0.356753 0.081622 0.352552
v -0.328864 0.203249 0.532114
v -0.309334 0.093192 0.155583
v -0.356753 0.081622 0.352552
v -0.375222 0.231900 0.320478
v -0.213881 0.559947 0.346066
v -0.364546 0.503790 0.589848
v -0.140809 0.608203 0.615450
v -0.364546 0.503790 0.589848
v -0.328864 0.203249 0.532114
v -0.226609 0.378323 0.752192
v -0.140809 0.608203 0.615450
v -0.226609 0.378323 0.752192
v 0.000000 0.469664 0.759933
v -0.364546 0.503790 0.589848
v -0.226609 0.378323 0.752192
v -0.140809 0.608203 0.615450
v -0.294850 0.182227 0.112623
v -0.375222 0.231900 0.320478
v -0.351321 0.411334 0.254218
v -0.375222 0.231900 0.320478
v -0.328864 0.203249 0.532114
v -0.364546 0.503790 0.589848
v -0.351321 0.411334 0.254218
v -0.364546 0.503790 0.589848
v -0.213881 0.559947 0.346066
v -0.375222 0.231900 0.320478
v -0.364546 0.503790 0.589848
v -0.351321 0.411334 0.254218
v -0.304216 0.492232 0.000000
v -0.142524 0.501704 0.000000
v -0.210147 0.417820 -0.125874
v -0.142524 0.501704 0.000000
v 0.000000 0.576510 0.000000
v -0.078042 0.456866 -0.126275
v -0.210147 0.417820 -0.125874
v -0.078042 0.456866 -0.126275
v -0.181516 0.475216 -0.293700
v -0.142524 0.501704 0.000000
v -0.078042 0.456866 -0.126275
v -0.210147 0.417820 -0.125874
v 0.000000 0.576510 0.000000
v 0.178017 0.626646 0.000000
v 0.096076 0.562438 -0.155454
v 0.178017 0.626646 0.000000
v 0.338853 0.548276 0.000000
v 0.271722 0.540245 -0.162757
v 0.096076 0.562438 -0.155454
v 0.271722 0.540245 -0.162757
v 0.213419 0.558738 -0.345319
v 0.178017 0.626646 0.000000
v 0.271722 0.540245 -0.162757
v 0.096076 0.562438 -0.155454
v -0.181516 0.475216 -0.293700
v 0.000000 0.505686 -0.312531
v -0.097277 0.420170 -0.425176
v 0.000000 0.505686 -0.312531
v 0.213419 0.558738 -0.345319
v 0.103478 0.446955 -0.452280
v -0.097277 0.420170 -0.425176
v 0.103478 0.446955 -0.452280
v 0.000000 0.328971 -0.532286
v 0.000000 0.505686 -0.312531
v 0.103478 0.446955 -0.452280
v -0.097277 0.420170 -0.425176
v 0.000000 0.576510 0.000000
v 0.096076 0.562438 -0.155454
v -0.078042 0.456866 -0.126275
v 0.096076 0.562438 -0.155454
v 0.213419 0.558738 -0.345319
v 0.000000 0.505686 -0.312531
v -0.078042 0.456866 -0.126275
v 0.000000 0.505686 -0.312531
v -0.181516 0.475216 -0.293700
v 0.096076 0.562438 -0.155454
v 0.000000 0.505686 -0.312531
v -0.078042 0.456866 -0.126275
v -0.304216 0.492232 0.000000
v -0.210147 0.417820 -0.125874
v -0.350046 0.354216 -0.081042
v -0.210147 0.417820 -0.125874
v -0.181516 0.475216 -0.293700
v -0.329423 0.385695 -0.238373
v -0.350046 0.354216 -0.081042
v -0.329423 0.385695 -0.238373
v -0.317251 0.196072 -0.121179
v -0.210147 0.417820 -0.125874
v -0.329423 0.385695 -0.238373
v -0.350046 0.354216 -0.081042
v -0.181516 0.475216 -0.293700
v -0.097277 0.420170 -0.425176
v -0.269270 0.372121 -0.435687
v -0.097277 0.420170 -0.425176
v 0.000000 0.328971 -0.532286
v -0.149340 0.249323 -0.495711
v -0.269270 0.372121 -0.435687
v -0.149340 0.249323 -0.495711
v -0.252814 0.156248 -0.409062
v -0.097277 0.420170 -0.425176
v -0.149340 0.249323 -0.495711
v -0.269270 0.372121 -0.435687
v -0.317251 0.196072 -0.121179
v -0.330424 0.204214 -0.282216
v -0.325012 0.097915 -0.163468
v -0.330424 0.204214 -0.282216
v -0.252814 0.156248 -0.409062
v -0.310711 0.071088 -0.307052
v -0.325012 0.097915 -0.163468
v -0.310711 0.071088 -0.307052
v -0.435199 0.000000 -0.268968
v -0.330424 0.204214 -0.282216
v -0.310711 0.071088 -0.307052
v -0.325012 0.097915 -0.163468
v -0.181516 0.475216 -0.293700
v -0.269270 0.372121 -0.435687
v -0.329423 0.385695 -0.238373
v -0.269270 0.372121 -0.435687
v -0.252814 0.156248 -0.409062
v -0.330424 0.204214 -0.282216
v -0.329423 0.385695 -0.238373
v -0.330424 0.204214 -0.282216
v -0.317251 0.196072 -0.121179
v -0.269270 0.372121 -0.435687
v -0.330424 0.204214 -0.282216
v -0.329423 0.385695 -0.238373
v -0.304216 0.492232 0.000000
v -0.350046 0.354216 -0.081042
v -0.435993 0.441187 0.100940
v -0.350046 0.354216 -0.081042
v -0.317251 0.196072 -0.121179
v -0.421343 0.260404 0.000000
v -0.435993 0.441187 0.100940
v -0.421343 0.260404 0.000000
v -0.294850 0.182227 0.112623
v -0.350046 0.354216 -0.081042
v -0.421343 0.260404 0.000000
v -0.435993 0.441187 0.100940
v -0.317251 0.196072 -0.121179
v -0.325012 0.097915 -0.163468
v -0.464599 0.128412 -0.079363
v -0.325012 0.097915 -0.163468
v -0.435199 0.000000 -0.268968
v -0.633230 0.000000 -0.179887
v -0.464599 0.128412 -0.079363
v -0.633230 0.000000 -0.179887
v -0.535732 0.000000 0.000000
v -0.325012 0.097915 -0.163468
v -0.633230 0.000000 -0.179887
v -0.464599 0.128412 -0.079363
v -0.294850 0.182227 0.112623
v -0.314753 0.086996 0.053766
v -0.309334 0.093192 0.155583
v -0.314753 0.086996 0.053766
v -0.535732 0.000000 0.000000
v -0.457715 0.000000 0.130027
v -0.309334 0.093192 0.155583
v -0.457715 0.000000 0.130027
v -0.473021 0.000000 0.292343
v -0.314753 0.086996 0.053766
v -0.457715 0.000000 0.130027
v -0.309334 0.093192 0.155583
v -0.317251 0.196072 -0.121179
v -0.464599 0.128412 -0.079363
v -0.421343 0.260404 0.000000
v -0.464599 0.128412 -0.079363
v -0.535732 0.000000 0.000000
v -0.314753 0.086996 0.053766
v -0.421343 0.260404 0.000000
v -0.314753 0.086996 0.053766
v -0.294850 0.182227 0.112623
v -0.464599 0.128412 -0.079363
v -0.314753 0.086996 0.053766
v -0.421343 0.260404 0.000000
v 0.652872 0.000000 -0.403497
v 0.538823 0.162329 -0.271007
v 0.735600 0.000000 -0.208969
v 0.538823 0.162329 -0.271007
v 0.422668 0.261223 -0.161445
v 0.578540 0.159904 -0.098826
v 0.735600 0.000000 -0.208969
v 0.578540 0.159904 -0.098826
v 0.585444 0.000000 0.000000
v 0.538823 0.162329 -0.271007
v 0.578540 0.159904 -0.098826
v 0.735600 0.000000 -0.208969
v 0.422668 0.261223 -0.161445
v 0.381057 0.385597 -0.088221
v 0.464634 0.287159 0.000000
v 0.381057 0.385597 -0.088221
v 0.338853 0.548276 0.000000
v 0.401197 0.405977 0.092884
v 0.464634 0.287159 0.000000
v 0.401197 0.405977 0.092884
v 0.299262 0.184954 0.114308
v 0.381057 0.385597 -0.088221
v 0.401197 0.405977 0.092884
v 0.464634 0.287159 0.000000
v 0.585444 0.000000 0.000000
v 0.407745 0.112698 0.069651
v 0.531289 0.000000 0.150928
v 0.407745 0.112698 0.069651
v 0.299262 0.184954 0.114308
v 0.413251 0.124498 0.207849
v 0.531289 0.000000 0.150928
v 0.413251 0.124498 0.207849
v 0.555923 0.000000 0.343579
v 0.407745 0.112698 0.069651
v 0.413251 0.124498 0.207849
v 0.531289 0.000000 0.150928
v 0.422668 0.261223 -0.161445
v 0.464634 0.287159 0.000000
v 0.578540 0.159904 -0.098826
v 0.464634 0.287159 0.000000
v 0.299262 0.184954 0.114308
v 0.407745 0.112698 0.069651
v 0.578540 0.159904 -0.098826
v 0.407745 0.112698 0.069651
v 0.585444 0.000000 0.000000
v 0.464634 0.287159 0.000000
v 0.407745 0.112698 0.069651
v 0.578540 0.159904 -0.098826
v 0.652872 0.000000 -0.403497
v 0.612800 0.140203 -0.605585
v 0.538823 0.162329 -0.271007
v 0.612800 0.140203 -0.605585
v 0.445401 0.275273 -0.720674
v 0.513928 0.317625 -0.438947
v 0.538823 0.162329 -0.271007
v 0.513928 0.317625 -0.438947
v 0.422668 0.261223 -0.161445
v 0.612800 0.140203 -0.605585
v 0.513928 0.317625 -0.438947
v 0.538823 0.162329 -0.271007
v 0.445401 0.275273 -0.720674
v 0.192774 0.321835 -0.639881
v 0.322748 0.446027 -0.522218
v 0.192774 0.321835 -0.639881
v 0.000000 0.328971 -0.532286
v 0.103478 0.446955 -0.452280
v 0.322748 0.446027 -0.522218
v 0.103478 0.446955 -0.452280
v 0.213419 0.558738 -0.345319
v 0.192774 0.321835 -0.639881
v 0.103478 0.446955 -0.452280
v 0.322748 0.446027 -0.522218
v 0.422668 0.261223 -0.161445
v 0.386286 0.452271 -0.279519
v 0.381057 0.385597 -0.088221
v 0.386286 0.452271 -0.279519
v 0.213419 0.558738 -0.345319
v 0.271722 0.540245 -0.162757
v 0.381057 0.385597 -0.088221
v 0.271722 0.540245 -0.162757
v 0.338853 0.548276 0.000000
v 0.386286 0.452271 -0.279519
v 0.271722 0.540245 -0.162757
v 0.381057 0.385597 -0.088221
v 0.445401 0.275273 -0.720674
v 0.322748 0.446027 -0.522218
v 0.513928 0.317625 -0.438947
v 0.322748 0.446027 -0.522218
v 0.213419 0.558738 -0.345319
v 0.386286 0.452271 -0.279519
v 0.513928 0.317625 -0.438947
v 0.386286 0.452271 -0.279519
v 0.422668 0.261223 -0.161445
v 0.322748 0.446027 -0.522218
v 0.386286 0.452271 -0.279519
v 0.513928 0.317625 -0.438947
v 0.652872 0.000000 -0.403497
v 0.735600 0.000000 -0.208969
v 0.680118 -0.204896 -0.342073
v 0.735600 0.000000 -0.208969
v 0.585444 0.000000 0.000000
v 0.614040 -0.169716 -0.104891
v 0.680118 -0.204896 -0.342073
v 0.614040 -0.169716 -0.104891
v 0.496768 -0.307020 -0.189749
v 0.735600 0.000000 -0.208969
v 0.614040 -0.169716 -0.104891
v 0.680118 -0.204896 -0.342073
v 0.585444 0.000000 0.000000
v 0.531289 0.000000 0.150928
v 0.524514 -0.144972 0.089598
v 0.531289 0.000000 0.150928
v 0.555923 0.000000 0.343579
v 0.510671 -0.153847 0.256847
v 0.524514 -0.144972 0.089598
v 0.510671 -0.153847 0.256847
v 0.404231 -0.249829 0.154403
v 0.531289 0.000000 0.150928
v 0.510671 -0.153847 0.256847
v 0.524514 -0.144972 0.089598
v 0.496768 -0.307020 -0.189749
v 0.383243 -0.236857 0.000000
v 0.390983 -0.395641 -0.090519
v 0.383243 -0.236857 0.000000
v 0.404231 -0.249829 0.154403
v 0.428586 -0.433692 0.099225
v 0.390983 -0.395641 -0.090519
v 0.428586 -0.433692 0.099225
v 0.440508 -0.712757 0.000000
v 0.383243 -0.236857 0.000000
v 0.428586 -0.433692 0.099225
v 0.390983 -0.395641 -0.090519
v 0.585444 0.000000 0.000000
v 0.524514 -0.144972 0.089598
v 0.614040 -0.169716 -0.104891
v 0.524514 -0.144972 0.089598
v 0.404231 -0.249829 0.154403
v 0.383243 -0.236857 0.000000
v 0.614040 -0.169716 -0.104891
v 0.383243 -0.236857 0.000000
v 0.496768 -0.307020 -0.189749
v 0.524514 -0.144972 0.089598
v 0.383243 -0.236857 0.000000
v 0.614040 -0.169716 -0.104891
v 0.652872 0.000000 -0.403497
v 0.534423 -0.122271 -0.528130
v 0.612800 0.140203 -0.605585
v 0.534423 -0.122271 -0.528130
v 0.302246 -0.186799 -0.489045
v 0.458996 0.000000 -0.742671
v 0.612800 0.140203 -0.605585
v 0.458996 0.000000 -0.742671
v 0.445401 0.275273 -0.720674
v 0.534423 -0.122271 -0.528130
v 0.458996 0.000000 -0.742671
v 0.612800 0.140203 -0.605585
v 0.302246 -0.186799 -0.489045
v 0.127023 -0.212064 -0.421631
v 0.153491 -0.094863 -0.555335
v 0.127023 -0.212064 -0.421631
v 0.000000 -0.254118 -0.411172
v 0.000000 -0.120684 -0.424826
v 0.153491 -0.094863 -0.555335
v 0.000000 -0.120684 -0.424826
v 0.000000 0.000000 -0.476411
v 0.127023 -0.212064 -0.421631
v 0.000000 -0.120684 -0.424826
v 0.153491 -0.094863 -0.555335
v 0.445401 0.275273 -0.720674
v 0.195906 0.121077 -0.708796
v 0.192774 0.321835 -0.639881
v 0.195906 0.121077 -0.708796
v 0.000000 0.000000 -0.476411
v 0.000000 0.160301 -0.564282
v 0.192774 0.321835 -0.639881
v 0.000000 0.160301 -0.564282
v 0.000000 0.328971 -0.532286
v 0.195906 0.121077 -0.708796
v 0.000000 0.160301 -0.564282
v 0.192774 0.321835 -0.639881
v 0.302246 -0.186799 -0.489045
v 0.153491 -0.094863 -0.555335
v 0.458996 0.000000 -0.742671
v 0.153491 -0.094863 -0.555335
v 0.000000 0.000000 -0.476411
v 0.195906 0.121077 -0.708796
v 0.458996 0.000000 -0.742671
v 0.195906 0.121077 -0.708796
v 0.445401 0.275273 -0.720674
v 0.153491 -0.094863 -0.555335
v 0.195906 0.121077 -0.708796
v 0.458996 0.000000 -0.742671
v 0.652872 0.000000 -0.403497
v 0.680118 -0.204896 -0.342073
v 0.534423 -0.122271 -0.528130
v 0.680118 -0.204896 -0.342073
v 0.496768 -0.307020 -0.189749
v 0.476075 -0.294231 -0.406617
v 0.534423 -0.122271 -0.528130
v 0.476075 -0.294231 -0.406617
v 0.302246 -0.186799 -0.489045
v 0.680118 -0.204896 -0.342073
v 0.476075 -0.294231 -0.406617
v 0.534423 -0.122271 -0.528130
v 0.496768 -0.307020 -0.189749
v 0.390983 -0.395641 -0.090519
v 0.446150 -0.522361 -0.322837
v 0.390983 -0.395641 -0.090519
v 0.440508 -0.712757 0.000000
v 0.345098 -0.686133 -0.206708
v 0.446150 -0.522361 -0.322837
v 0.345098 -0.686133 -0.206708
v 0.269391 -0.705274 -0.435883
v 0.390983 -0.395641 -0.090519
v 0.345098 -0.686133 -0.206708
v 0.446150 -0.522361 -0.322837
v 0.302246 -0.186799 -0.489045
v 0.289040 -0.399444 -0.467677
v 0.127023 -0.212064 -0.421631
v 0.289040 -0.399444 -0.467677
v 0.269391 -0.705274 -0.435883
v 0.115275 -0.497913 -0.503845
v 0.127023 -0.212064 -0.421631
v 0.115275 -0.497913 -0.503845
v 0.000000 -0.254118 -0.411172
v 0.289040 -0.399444 -0.467677
v 0.115275 -0.497913 -0.503845
v 0.127023 -0.212064 -0.421631
v 0.496768 -0.307020 -0.189749
v 0.446150 -0.522361 -0.322837
v 0.476075 -0.294231 -0.406617
v 0.446150 -0.522361 -0.322837
v 0.269391 -0.705274 -0.435883
v 0.289040 -0.399444 -0.467677
v 0.476075 -0.294231 -0.406617
v 0.289040 -0.399444 -0.467677
v 0.302246 -0.186799 -0.489045
v 0.446150 -0.522361 -0.322837
v 0.289040 -0.399444 -0.467677
v 0.476075 -0.294231 -0.406617
v 0.000000 0.469664 0.759933
v 0.191650 0.319959 0.636151
v 0.117024 0.505464 0.511486
v 0.191650 0.319959 0.636151
v 0.315264 0.194844 0.510107
v 0.258578 0.357346 0.418388
v 0.117024 0.505464 0.511486
v 0.258578 0.357346 0.418388
v 0.165932 0.434415 0.268483
v 0.191650 0.319959 0.636151
v 0.258578 0.357346 0.418388
v 0.117024 0.505464 0.511486
v 0.315264 0.194844 0.510107
v 0.434491 0.099408 0.429375
v 0.352864 0.218082 0.301382
v 0.434491 0.099408 0.429375
v 0.555923 0.000000 0.343579
v 0.413251 0.124498 0.207849
v 0.352864 0.218082 0.301382
v 0.413251 0.124498 0.207849
v 0.299262 0.184954 0.114308
v 0.434491 0.099408 0.429375
v 0.413251 0.124498 0.207849
v 0.352864 0.218082 0.301382
v 0.165932 0.434415 0.268483
v 0.249790 0.292460 0.180750
v 0.290533 0.577645 0.174024
v 0.249790 0.292460 0.180750
v 0.299262 0.184954 0.114308
v 0.401197 0.405977 0.092884
v 0.290533 0.577645 0.174024
v 0.401197 0.405977 0.092884
v 0.338853 0.548276 0.000000
v 0.249790 0.292460 0.180750
v 0.401197 0.405977 0.092884
v 0.290533 0.577645 0.174024
v 0.315264 0.194844 0.510107
v 0.352864 0.218082 0.301382
v 0.258578 0.357346 0.418388
v 0.352864 0.218082 0.301382
v 0.299262 0.184954 0.114308
v 0.249790 0.292460 0.180750
v 0.258578 0.357346 0.418388
v 0.249790 0.292460 0.180750
v 0.165932 0.434415 0.268483
v 0.352864 0.218082 0.301382
v 0.249790 0.292460 0.180750
v 0.258578 0.357346 0.418388
v 0.000000 -0.254118 -0.411172
v -0.098434 -0.425168 -0.430234
v -0.121941 -0.203581 -0.404764
v -0.098434 -0.425168 -0.430234
v -0.173923 -0.455337 -0.281414
v -0.238616 -0.329759 -0.386088
v -0.121941 -0.203581 -0.404764
v -0.238616 -0.329759 -0.386088
v -0.252822 -0.156252 -0.409074
v -0.098434 -0.425168 -0.430234
v -0.238616 -0.329759 -0.386088
v -0.121941 -0.203581 -0.404764
v -0.173923 -0.455337 -0.281414
v -0.165344 -0.328742 -0.099038
v -0.307695 -0.360256 -0.222650
v -0.165344 -0.328742 -0.099038
v -0.257204 -0.416165 0.000000
v -0.260700 -0.263806 -0.060356
v -0.307695 -0.360256 -0.222650
v -0.260700 -0.263806 -0.060356
v -0.470190 -0.290593 -0.179596
v -0.165344 -0.328742 -0.099038
v -0.260700 -0.263806 -0.060356
v -0.307695 -0.360256 -0.222650
v -0.252822 -0.156252 -0.409074
v -0.433110 -0.267677 -0.369920
v -0.368758 -0.084369 -0.364416
v -0.433110 -0.267677 -0.369920
v -0.470190 -0.290593 -0.179596
v -0.612428 -0.184503 -0.308027
v -0.368758 -0.084369 -0.364416
v -0.612428 -0.184503 -0.308027
v -0.435199 0.000000 -0.268968
v -0.433110 -0.267677 -0.369920
v -0.612428 -0.184503 -0.308027
v -0.368758 -0.084369 -0.364416
v -0.173923 -0.455337 -0.281414
v -0.307695 -0.360256 -0.222650
v -0.238616 -0.329759 -0.386088
v -0.307695 -0.360256 -0.222650
v -0.470190 -0.290593 -0.179596
v -0.433110 -0.267677 -0.369920
v -0.238616 -0.329759 -0.386088
v -0.433110 -0.267677 -0.369920
v -0.252822 -0.156252 -0.409074
v -0.307695 -0.360256 -0.222650
v -0.433110 -0.267677 -0.369920
v -0.238616 -0.329759 -0.386088
v 0.000000 -0.254118 -0.411172
v 0.115275 -0.497913 -0.503845
v -0.098434 -0.425168 -0.430234
v 0.115275 -0.497913 -0.503845
v 0.269391 -0.705274 -0.435883
v 0.000000 -0.624591 -0.386019
v -0.098434 -0.425168 -0.430234
v 0.000000 -0.624591 -0.386019
v -0.173923 -0.455337 -0.281414
v 0.115275 -0.497913 -0.503845
v 0.000000 -0.624591 -0.386019
v -0.098434 -0.425168 -0.430234
v 0.269391 -0.705274 -0.435883
v 0.345098 -0.686133 -0.206708
v 0.123420 -0.722512 -0.199697
v 0.345098 -0.686133 -0.206708
v 0.440508 -0.712757 0.000000
v 0.259314 -0.912825 0.000000
v 0.123420 -0.722512 -0.199697
v 0.259314 -0.912825 0.000000
v 0.000000 -0.821828 0.000000
v 0.345098 -0.686133 -0.206708
v 0.259314 -0.912825 0.000000
v 0.123420 -0.722512 -0.199697
v -0.173923 -0.455337 -0.281414
v -0.085207 -0.498813 -0.137869
v -0.165344 -0.328742 -0.099038
v -0.085207 -0.498813 -0.137869
v 0.000000 -0.821828 0.000000
v -0.171706 -0.604432 0.000000
v -0.165344 -0.328742 -0.099038
v -0.171706 -0.604432 0.000000
v -0.257204 -0.416165 0.000000
v -0.085207 -0.498813 -0.137869
v -0.171706 -0.604432 0.000000
v -0.165344 -0.328742 -0.099038
v 0.269391 -0.705274 -0.435883
v 0.123420 -0.722512 -0.199697
v 0.000000 -0.624591 -0.386019
v 0.123420 -0.722512 -0.199697
v 0.000000 -0.821828 0.000000
v -0.085207 -0.498813 -0.137869
v 0.000000 -0.624591 -0.386019
v -0.085207 -0.498813 -0.137869
v -0.173923 -0.455337 -0.281414
v 0.123420 -0.722512 -0.199697
v -0.085207 -0.498813 -0.137869
v 0.000000 -0.624591 -0.386019
v 0.000000 -0.254118 -0.411172
v -0.121941 -0.203581 -0.404764
v 0.000000 -0.120684 -0.424826
v -0.121941 -0.203581 -0.404764
v -0.252822 -0.156252 -0.409074
v -0.115725 -0.071522 -0.418696
v 0.000000 -0.120684 -0.424826
v -0.115725 -0.071522 -0.418696
v 0.000000 0.000000 -0.476411
v -0.121941 -0.203581 -0.404764
v -0.115725 -0.071522 -0.418696
v 0.000000 -0.120684 -0.424826
v -0.252822 -0.156252 -0.409074
v -0.368758 -0.084369 -0.364416
v -0.246667 0.000000 -0.399115
v -0.368758 -0.084369 -0.364416
v -0.435199 0.000000 -0.268968
v -0.310711 0.071088 -0.307052
v -0.246667 0.000000 -0.399115
v -0.310711 0.071088 -0.307052
v -0.252814 0.156248 -0.409062
v -0.368758 -0.084369 -0.364416
v -0.310711 0.071088 -0.307052
v -0.246667 0.000000 -0.399115
v 0.000000 0.000000 -0.476411
v -0.118336 0.073135 -0.428143
v 0.000000 0.160301 -0.564282
v -0.118336 0.073135 -0.428143
v -0.252814 0.156248 -0.409062
v -0.149340 0.249323 -0.495711
v 0.000000 0.160301 -0.564282
v -0.149340 0.249323 -0.495711
v 0.000000 0.328971 -0.532286
v -0.118336 0.073135 -0.428143
v -0.149340 0.249323 -0.495711
v 0.000000 0.160301 -0.564282
v -0.252822 -0.156252 -0.409074
v -0.246667 0.000000 -0.399115
v -0.115725 -0.071522 -0.418696
v -0.246667 0.000000 -0.399115
v -0.252814 0.156248 -0.409062
v -0.118336 0.073135 -0.428143
v -0.115725 -0.071522 -0.418696
v -0.118336 0.073135 -0.428143
v 0.000000 0.000000 -0.476411
v -0.246667 0.000000 -0.399115
v -0.118336 0.073135 -0.428143
v -0.115725 -0.071522 -0.418696
v -0.257204 -0.416165 0.000000
v -0.364110 -0.368448 0.084298
v -0.260700 -0.263806 -0.060356
v -0.364110 -0.368448 0.084298
v -0.478658 -0.295827 0.182831
v -0.393375 -0.243119 0.000000
v -0.260700 -0.263806 -0.060356
v -0.393375 -0.243119 0.000000
v -0.470190 -0.290593 -0.179596
v -0.364110 -0.368448 0.084298
v -0.393375 -0.243119 0.000000
v -0.260700 -0.263806 -0.060356
v -0.478658 -0.295827 0.182831
v -0.552875 -0.166562 0.278075
v -0.532780 -0.147257 0.091010
v -0.552875 -0.166562 0.278075
v -0.473021 0.000000 0.292343
v -0.457715 0.000000 0.130027
v -0.532780 -0.147257 0.091010
v -0.457715 0.000000 0.130027
v -0.535732 0.000000 0.000000
v -0.552875 -0.166562 0.278075
v -0.457715 0.000000 0.130027
v -0.532780 -0.147257 0.091010
v -0.470190 -0.290593 -0.179596
v -0.601357 -0.166211 -0.102724
v -0.612428 -0.184503 -0.308027
v -0.601357 -0.166211 -0.102724
v -0.535732 0.000000 0.000000
v -0.633230 0.000000 -0.179887
v -0.612428 -0.184503 -0.308027
v -0.633230 0.000000 -0.179887
v -0.435199 0.000000 -0.268968
v -0.601357 -0.166211 -0.102724
v -0.633230 0.000000 -0.179887
v -0.612428 -0.184503 -0.308027
v -0.478658 -0.295827 0.182831
v -0.532780 -0.147257 0.091010
v -0.393375 -0.243119 0.000000
v -0.532780 -0.147257 0.091010
v -0.535732 0.000000 0.000000
v -0.601357 -0.166211 -0.102724
v -0.393375 -0.243119 0.000000
v -0.601357 -0.166211 -0.102724
v -0.470190 -0.290593 -0.179596
v -0.532780 -0.147257 0.091010
v -0.601357 -0.166211 -0.102724
v -0.393375 -0.243119 0.000000
vn 0.732241 0.148324 0.664698
vn 0.732241 0.148324 0.664698
vn 0.732241 0.148324 0.664698
vn 0.938936 0.040538 0.341696
vn 0.938936 0.040538 0.341696
vn 0.938936 0.040538 0.341696
vn 0.687912 0.066638 0.722728
vn 0.687912 0.066638 0.722728
vn 0.687912 0.066638 0.722728
vn 0.709954 0.008123 0.704201
vn 0.709954 0.008123 0.704201
vn 0.709954 0.008123 0.704201
vn 0.195867 -0.741833 0.641342
vn 0.195867 -0.741833 0.641342
vn 0.195867 -0.741833 0.641342
vn 0.182622 -0.504987 0.843586
vn 0.182622 -0.504987 0.843586
vn 0.182622 -0.504987 0.843586
vn 0.342528 -0.319481 0.883519
vn 0.342528 -0.319481 0.883519
vn 0.342528 -0.319481 0.883519
vn 0.469445 -0.566033 0.677664
vn 0.469445 -0.566033 0.677664
vn 0.469445 -0.566033 0.677664
vn 0.343464 -0.354496 0.869692
vn 0.343464 -0.354496 0.869692
vn 0.343464 -0.354496 0.869692
vn 0.606693 -0.180503 0.774172
vn 0.606693 -0.180503 0.774172
vn 0.606693 -0.180503 0.774172
vn 0.443689 -0.160948 0.881610
vn 0.443689 -0.160948 0.881610
vn 0.443689 -0.160948 0.881610
vn 0.451123 -0.177452 0.874642
vn 0.451123 -0.177452 0.874642
vn 0.451123 -0.177452 0.874642
vn 0.578496 -0.720311 0.382746
vn 0.578496 -0.720311 0.382746
vn 0.578496 -0.720311 0.382746
vn 0.642674 -0.319052 0.696546
vn 0.642674 -0.319052 0.696546
vn 0.642674 -0.319052 0.696546
vn 0.405306 -0.475069 0.781048
vn 0.405306 -0.475069 0.781048
vn 0.405306 -0.475069 0.781048
vn 0.535478 -0.456651 0.710446
vn 0.535478 -0.456651 0.710446
vn 0.535478 -0.456651 0.710446
vn 0.220116 0.212447 0.952058
vn 0.220116 0.212447 0.952058
vn 0.220116 0.212447 0.952058
vn 0.103451 0.091321 0.990433
vn 0.103451 0.091321 0.990433
vn 0.103451 0.091321 0.990433
vn -0.526693 0.327956 0.784244
vn -0.526693 0.327956 0.784244
vn -0.526693 0.327956 0.784244
vn 0.170087 0.269509 0.947858
vn 0.170087 0.269509 0.947858
vn 0.170087 0.269509 0.947858
vn -0.295194 -0.360638 0.884760
vn -0.295194 -0.360638 0.884760
vn -0.295194 -0.360638 0.884760
vn 0.038757 -0.179458 0.983002
vn 0.038757 -0.179458 0.983002
vn 0.038757 -0.179458 0.983002
vn -0.615474 -0.452088 0.645607
vn -0.615474 -0.452088 0.645607
vn -0.615474 -0.452088 0.645607
vn -0.213510 -0.473681 0.854424
vn -0.213510 -0.473681 0.854424
vn -0.213510 -0.473681 0.854424
vn -0.684872 0.508707 0.521697
vn -0.684872 0.508707 0.521697
vn -0.684872 0.508707 0.521697
vn -0.891335 -0.298870 0.340879
vn -0.891335 -0.298870 0.340879
vn -0.891335 -0.298870 0.340879
vn -0.615296 0.358652 0.701983
vn -0.615296 0.358652 0.701983
vn -0.615296 0.358652 0.701983
vn -0.648851 0.359376 0.670702
vn -0.648851 0.359376 0.670702
vn -0.648851 0.359376 0.670702
vn 0.039075 0.192874 0.980445
vn 0.039075 0.192874 0.980445
vn 0.039075 0.192874 0.980445
vn -0.596921 -0.363372 0.715294
vn -0.596921 -0.363372 0.715294
vn -0.596921 -0.363372 0.715294
vn -0.581700 0.527056 0.619546
vn -0.581700 0.527056 0.619546
vn -0.581700 0.527056 0.619546
vn -0.829926 0.152375 0.536660
vn -0.829926 0.152375 0.536660
vn -0.829926 0.152375 0.536660
vn 0.772073 0.078071 0.630720
vn 0.772073 0.078071 0.630720
vn 0.772073 0.078071 0.630720
vn 0.892942 0.055569 0.446729
vn 0.892942 0.055569 0.446729
vn 0.892942 0.055569 0.446729
vn 0.915556 0.111149 0.386528
vn 0.915556 0.111149 0.386528
vn 0.915556 0.111149 0.386528
vn 0.909834 0.022962 0.414338
vn 0.909834 0.022962 0.414338
vn 0.909834 0.022962 0.414338
vn 0.812559 0.108859 0.572623
vn 0.812559 0.108859 0.572623
vn 0.812559 0.108859 0.572623
vn 0.913354 -0.101208 0.394387
vn 0.913354 -0.101208 0.394387
vn 0.913354 -0.101208 0.394387
vn 0.613601 -0.151297 0.774986
vn 0.613601 -0.151297 0.774986
vn 0.613601 -0.151297 0.774986
vn 0.703883 0.090270 0.704556
vn 0.703883 0.090270 0.704556
vn 0.703883 0.090270 0.704556
vn 0.269173 -0.894265 0.357541
vn 0.269173 -0.894265 0.357541
vn 0.269173 -0.894265 0.357541
vn -0.107453 -0.667384 0.736921
vn -0.107453 -0.667384 0.736921
vn -0.107453 -0.667384 0.736921
vn 0.189877 -0.523946 0.830318
vn 0.189877 -0.523946 0.830318
vn 0.189877 -0.523946 0.830318
vn -0.079254 -0.819449 0.567646
vn -0.079254 -0.819449 0.567646
vn -0.079254 -0.819449 0.567646
vn 0.857039 0.057966 0.511981
vn 0.857039 0.057966 0.511981
vn 0.857039 0.057966 0.511981
vn 0.435269 0.105494 0.894099
vn 0.435269 0.105494 0.894099
vn 0.435269 0.105494 0.894099
vn 0.921900 0.109855 0.371527
vn 0.921900 0.109855 0.371527
vn 0.921900 0.109855 0.371527
vn 0.864168 0.206730 0.458776
vn 0.864168 0.206730 0.458776
vn 0.864168 0.206730 0.458776
vn 0.285677 -0.590643 0.754672
vn 0.285677 -0.590643 0.754672
vn 0.285677 -0.590643 0.754672
vn -0.547152 -0.836384 -0.032960
vn -0.547152 -0.836384 -0.032960
vn -0.547152 -0.836384 -0.032960
vn 0.461689 -0.789142 0.405092
vn 0.461689 -0.789142 0.405092
vn 0.461689 -0.789142 0.405092
vn 0.283981 -0.775055 0.564486
vn 0.283981 -0.775055 0.564486
vn 0.283981 -0.775055 0.564486
vn -0.799060 -0.599989 -0.038948
vn -0.799060 -0.599989 -0.038948
vn -0.799060 -0.599989 -0.038948
vn -0.900108 -0.408767 -0.150718
vn -0.900108 -0.408767 -0.150718
vn -0.900108 -0.408767 -0.150718
vn -0.784630 -0.619726 0.017181
vn -0.784630 -0.619726 0.017181
vn -0.784630 -0.619726 0.017181
vn -0.806511 -0.590208 0.034564
vn -0.806511 -0.590208 0.034564
vn -0.806511 -0.590208 0.034564
vn 0.371019 -0.609253 0.700825
vn 0.371019 -0.609253 0.700825
vn 0.371019 -0.609253 0.700825
vn -0.321459 -0.916064 0.239771
vn -0.321459 -0.916064 0.239771
vn -0.321459 -0.916064 0.239771
vn 0.697314 -0.631532 0.338998
vn 0.697314 -0.631532 0.338998
vn 0.697314 -0.631532 0.338998
vn 0.420667 -0.720808 0.550886
vn 0.420667 -0.720808 0.550886
vn 0.420667 -0.720808 0.550886
vn -0.603123 -0.769356 0.210558
vn -0.603123 -0.769356 0.210558
vn -0.603123 -0.769356 0.210558
vn -0.494762 -0.799062 0.341629
vn -0.494762 -0.799062 0.341629
vn -0.494762 -0.799062 0.341629
vn 0.449909 -0.609627 0.652639
vn 0.449909 -0.609627 0.652639
vn 0.449909 -0.609627 0.652639
vn -0.496516 -0.854566 0.152278
vn -0.496516 -0.854566 0.152278
vn -0.496516 -0.854566 0.152278
vn 0.026576 -0.449358 0.892956
vn 0.026576 -0.449358 0.892956
vn 0.026576 -0.449358 0.892956
vn -0.829824 -0.253606 0.497067
vn -0.829824 -0.253606 0.497067
vn -0.829824 -0.253606 0.497067
vn -0.657231 -0.753592 0.012127
vn -0.657231 -0.753592 0.012127
vn -0.657231 -0.753592 0.012127
vn -0.689076 -0.503616 0.521100
vn -0.689076 -0.503616 0.521100
vn -0.689076 -0.503616 0.521100
vn -0.971843 0.008917 0.235461
vn -0.971843 0.008917 0.235461
vn -0.971843 0.008917 0.235461
vn -0.687510 0.271926 0.673340
vn -0.687510 0.271926 0.673340
vn -0.687510 0.271926 0.673340
vn -0.653537 -0.654865 0.379528
vn -0.653537 -0.654865 0.379528
vn -0.653537 -0.654865 0.379528
vn -0.572027 -0.171268 0.802155
vn -0.572027 -0.171268 0.802155
vn -0.572027 -0.171268 0.802155
vn -0.852679 -0.522415 -0.004486
vn -0.852679 -0.522415 -0.004486
vn -0.852679 -0.522415 -0.004486
vn -0.467615 -0.877866 0.103386
vn -0.467615 -0.877866 0.103386
vn -0.467615 -0.877866 0.103386
vn -0.592173 -0.732171 -0.336538
vn -0.592173 -0.732171 -0.336538
vn -0.592173 -0.732171 -0.336538
vn -0.762784 -0.613979 0.202952
vn -0.762784 -0.613979 0.202952
vn -0.762784 -0.613979 0.202952
vn -0.941722 -0.211782 0.261357
vn -0.941722 -0.211782 0.261357
vn -0.941722 -0.211782 0.261357
vn -0.500859 -0.789545 0.354624
vn -0.500859 -0.789545 0.354624
vn -0.500859 -0.789545 0.354624
vn -0.793488 -0.585715 -0.165273
vn -0.793488 -0.585715 -0.165273
vn -0.793488 -0.585715 -0.165273
vn -0.835326 -0.528479 -0.151460
vn -0.835326 -0.528479 -0.151460
vn -0.835326 -0.528479 -0.151460
vn -0.049616 0.846917 -0.529405
vn -0.049616 0.846917 -0.529405
vn -0.049616 0.846917 -0.529405
vn -0.329687 0.843715 0.423617
vn -0.329687 0.843715 0.423617
vn -0.329687 0.843715 0.423617
vn -0.368840 0.702738 -0.608372
vn -0.368840 0.702738 -0.608372
vn -0.368840 0.702738 -0.608372
vn -0.257156 0.721960 -0.642375
vn -0.257156 0.721960 -0.642375
vn -0.257156 0.721960 -0.642375
vn 0.049478 0.980710 -0.189102
vn 0.049478 0.980710 -0.189102
vn 0.049478 0.980710 -0.189102
vn 0.462447 0.820496 0.336051
vn 0.462447 0.820496 0.336051
vn 0.462447 0.820496 0.336051
vn 0.516171 0.844461 -0.143015
vn 0.516171 0.844461 -0.143015
vn 0.516171 0.844461 -0.143015
vn 0.363620 0.931362 -0.018604
vn 0.363620 0.931362 -0.018604
vn 0.363620 0.931362 -0.018604
vn -0.247460 0.878656 -0.408321
vn -0.247460 0.878656 -0.408321
vn -0.247460 0.878656 -0.408321
vn 0.323191 0.308785 0.894539
vn 0.323191 0.308785 0.894539
vn 0.323191 0.308785 0.894539
vn 0.437834 0.898552 -0.030077
vn 0.437834 0.898552 -0.030077
vn 0.437834 0.898552 -0.030077
vn 0.566479 0.812528 -0.137474
vn 0.566479 0.812528 -0.137474
vn 0.566479 0.812528 -0.137474
vn 0.066708 0.780495 0.621593
vn 0.066708 0.780495 0.621593
vn 0.066708 0.780495 0.621593
vn 0.543144 0.314414 0.778549
vn 0.543144 0.314414 0.778549
vn 0.543144 0.314414 0.778549
vn -0.067735 0.859272 -0.507015
vn -0.067735 0.859272 -0.507015
vn -0.067735 0.859272 -0.507015
vn -0.085825 0.721206 0.687383
vn -0.085825 0.721206 0.687383
vn -0.085825 0.721206 0.687383
vn -0.592536 0.682022 -0.428658
vn -0.592536 0.682022 -0.428658
vn -0.592536 0.682022 -0.428658
vn -0.822545 -0.431611 0.370314
vn -0.822545 -0.431611 0.370314
vn -0.822545 -0.431611 0.370314
vn -0.760161 0.375150 0.530488
vn -0.760161 0.375150 0.530488
vn -0.760161 0.375150 0.530488
vn -0.780779 0.370110 0.503391
vn -0.780779 0.370110 0.503391
vn -0.780779 0.370110 0.503391
vn -0.934113 -0.020010 -0.356416
vn -0.934113 -0.020010 -0.356416
vn -0.934113 -0.020010 -0.356416
vn -0.543887 0.835154 -0.081880
vn -0.543887 0.835154 -0.081880
vn -0.543887 0.835154 -0.081880
vn -0.976090 -0.076540 0.203446
vn -0.976090 -0.076540 0.203446
vn -0.976090 -0.076540 0.203446
vn -0.955984 -0.168727 -0.240055
vn -0.955984 -0.168727 -0.240055
vn -0.955984 -0.168727 -0.240055
vn -0.417755 0.907227 -0.049199
vn -0.417755 0.907227 -0.049199
vn -0.417755 0.907227 -0.049199
vn -0.817651 -0.200730 0.539587
vn -0.817651 -0.200730 0.539587
vn -0.817651 -0.200730 0.539587
vn -0.253685 0.562694 0.786778
vn -0.253685 0.562694 0.786778
vn -0.253685 0.562694 0.786778
vn -0.351752 0.572046 0.740968
vn -0.351752 0.572046 0.740968
vn -0.351752 0.572046 0.740968
vn -0.933328 -0.008220 -0.358930
vn -0.933328 -0.008220 -0.358930
vn -0.933328 -0.008220 -0.358930
vn -0.969595 -0.151962 0.191813
vn -0.969595 -0.151962 0.191813
vn -0.969595 -0.151962 0.191813
vn -0.640940 0.733187 -0.227227
vn -0.640940 0.733187 -0.227227
vn -0.640940 0.733187 -0.227227
vn -0.991914 0.106827 -0.068512
vn -0.991914 0.106827 -0.068512
vn -0.991914 0.106827 -0.068512
vn -0.049396 0.843173 -0.535368
vn -0.049396 0.843173 -0.535368
vn -0.049396 0.843173 -0.535368
vn -0.406913 0.775277 -0.483082
vn -0.406913 0.775277 -0.483082
vn -0.406913 0.775277 -0.483082
vn -0.272211 0.923733 0.269480
vn -0.272211 0.923733 0.269480
vn -0.272211 0.923733 0.269480
vn -0.256170 0.862222 -0.436978
vn -0.256170 0.862222 -0.436978
vn -0.256170 0.862222 -0.436978
vn -0.262703 0.932780 -0.246796
vn -0.262703 0.932780 -0.246796
vn -0.262703 0.932780 -0.246796
vn 0.427346 0.877029 -0.219535
vn 0.427346 0.877029 -0.219535
vn 0.427346 0.877029 -0.219535
vn 0.127566 0.990041 0.059547
vn 0.127566 0.990041 0.059547
vn 0.127566 0.990041 0.059547
vn 0.096262 0.901047 -0.422903
vn 0.096262 0.901047 -0.422903
vn 0.096262 0.901047 -0.422903
vn -0.193451 0.854673 -0.481779
vn -0.193451 0.854673 -0.481779
vn -0.193451 0.854673 -0.481779
vn -0.280232 0.793095 -0.540806
vn -0.280232 0.793095 -0.540806
vn -0.280232 0.793095 -0.540806
vn -0.186299 0.658091 -0.729526
vn -0.186299 0.658091 -0.729526
vn -0.186299 0.658091 -0.729526
vn -0.180038 0.852112 -0.491419
vn -0.180038 0.852112 -0.491419
vn -0.180038 0.852112 -0.491419
vn -0.524082 0.755921 -0.392328
vn -0.524082 0.755921 -0.392328
vn -0.524082 0.755921 -0.392328
vn -0.263378 0.947515 -0.181241
vn -0.263378 0.947515 -0.181241
vn -0.263378 0.947515 -0.181241
vn -0.142718 0.970451 0.194569
vn -0.142718 0.970451 0.194569
vn -0.142718 0.970451 0.194569
vn -0.517544 0.855625 0.007419
vn -0.517544 0.855625 0.007419
vn -0.517544 0.855625 0.007419
vn -0.472287 0.557655 -0.682617
vn -0.472287 0.557655 -0.682617
vn -0.472287 0.557655 -0.682617
vn -0.442940 0.868747 0.221548
vn -0.442940 0.868747 0.221548
vn -0.442940 0.868747 0.221548
vn -0.973850 -0.161359 -0.159937
vn -0.973850 -0.161359 -0.159937
vn -0.973850 -0.161359 -0.159937
vn -0.374051 0.917594 0.134560
vn -0.374051 0.917594 0.134560
vn -0.374051 0.917594 0.134560
vn -0.207108 0.848055 -0.487759
vn -0.207108 0.848055 -0.487759
vn -0.207108 0.848055 -0.487759
vn -0.432708 0.453537 -0.779146
vn -0.432708 0.453537 -0.779146
vn -0.432708 0.453537 -0.779146
vn -0.556415 -0.143359 -0.818444
vn -0.556415 -0.143359 -0.818444
vn -0.556415 -0.143359 -0.818444
vn -0.054350 0.395153 -0.917006
vn -0.054350 0.395153 -0.917006
vn -0.054350 0.395153 -0.917006
vn -0.995584 0.042699 0.083603
vn -0.995584 0.042699 0.083603
vn -0.995584 0.042699 0.083603
vn -0.857813 -0.031322 -0.513007
vn -0.857813 -0.031322 -0.513007
vn -0.857813 -0.031322 -0.513007
vn -0.532064 0.821158 -0.206416
vn -0.532064 0.821158 -0.206416
vn -0.532064 0.821158 -0.206416
vn -0.988425 -0.132627 -0.073668
vn -0.988425 -0.132627 -0.073668
vn -0.988425 -0.132627 -0.073668
vn -0.564997 0.793304 -0.226817
vn -0.564997 0.793304 -0.226817
vn -0.564997 0.793304 -0.226817
vn -0.866686 -0.125610 -0.482782
vn -0.866686 -0.125610 -0.482782
vn -0.866686 -0.125610 -0.482782
vn -0.996630 -0.014025 0.080821
vn -0.996630 -0.014025 0.080821
vn -0.996630 -0.014025 0.080821
vn -0.952239 0.076662 -0.295573
vn -0.952239 0.076662 -0.295573
vn -0.952239 0.076662 -0.295573
vn -0.634116 0.537160 -0.556197
vn -0.634116 0.537160 -0.556197
vn -0.634116 0.537160 -0.556197
vn -0.756084 0.009298 -0.654408
vn -0.756084 0.009298 -0.654408
vn -0.756084 0.009298 -0.654408
vn -0.734884 -0.375047 0.565053
vn -0.734884 -0.375047 0.565053
vn -0.734884 -0.375047 0.565053
vn -0.841623 0.209686 -0.497696
vn -0.841623 0.209686 -0.497696
vn -0.841623 0.209686 -0.497696
vn -0.412059 0.387805 -0.824509
vn -0.412059 0.387805 -0.824509
vn -0.412059 0.387805 -0.824509
vn -0.233528 0.822161 -0.519149
vn -0.233528 0.822161 -0.519149
vn -0.233528 0.822161 -0.519149
vn -0.692722 0.615769 0.375454
vn -0.692722 0.615769 0.375454
vn -0.692722 0.615769 0.375454
vn -0.207601 0.757322 -0.619165
vn -0.207601 0.757322 -0.619165
vn -0.207601 0.757322 -0.619165
vn -0.982825 0.179846 0.041364
vn -0.982825 0.179846 0.041364
vn -0.982825 0.179846 0.041364
vn -0.406028 0.880790 0.243618
vn -0.406028 0.880790 0.243618
vn -0.406028 0.880790 0.243618
vn -0.525078 0.849613 -0.049516
vn -0.525078 0.849613 -0.049516
vn -0.525078 0.849613 -0.049516
vn -0.528809 0.848416 -0.023485
vn -0.528809 0.848416 -0.023485
vn -0.528809 0.848416 -0.023485
vn -0.454548 0.563657 -0.689693
vn -0.454548 0.563657 -0.689693
vn -0.454548 0.563657 -0.689693
vn -0.409093 0.632877 0.657350
vn -0.409093 0.632877 0.657350
vn -0.409093 0.632877 0.657350
vn -0.724922 -0.246112 0.643364
vn -0.724922 -0.246112 0.643364
vn -0.724922 -0.246112 0.643364
vn -0.681075 -0.200269 0.704293
vn -0.681075 -0.200269 0.704293
vn -0.681075 -0.200269 0.704293
vn 0.661876 0.694759 -0.281478
vn 0.661876 0.694759 -0.281478
vn 0.661876 0.694759 -0.281478
vn 0.574746 0.809310 -0.121180
vn 0.574746 0.809310 -0.121180
vn 0.574746 0.809310 -0.121180
vn 0.755119 0.367948 0.542596
vn 0.755119 0.367948 0.542596
vn 0.755119 0.367948 0.542596
vn 0.656061 0.741440 -0.140893
vn 0.656061 0.741440 -0.140893
vn 0.656061 0.741440 -0.140893
vn 0.842136 0.453524 -0.291759
vn 0.842136 0.453524 -0.291759
vn 0.842136 0.453524 -0.291759
vn 0.937280 0.319162 -0.140147
vn 0.937280 0.319162 -0.140147
vn 0.937280 0.319162 -0.140147
vn 0.644682 -0.226555 0.730108
vn 0.644682 -0.226555 0.730108
vn 0.644682 -0.226555 0.730108
vn 0.816865 0.556054 -0.153414
vn 0.816865 0.556054 -0.153414
vn 0.816865 0.556054 -0.153414
vn 0.580765 0.786948 0.208388
vn 0.580765 0.786948 0.208388
vn 0.580765 0.786948 0.208388
vn 0.525095 0.845930 -0.093154
vn 0.525095 0.845930 -0.093154
vn 0.525095 0.845930 -0.093154
vn 0.701943 0.706555 -0.089757
vn 0.701943 0.706555 -0.089757
vn 0.701943 0.706555 -0.089757
vn 0.702381 0.706303 -0.088296
vn 0.702381 0.706303 -0.088296
vn 0.702381 0.706303 -0.088296
vn 0.599369 0.751210 -0.276478
vn 0.599369 0.751210 -0.276478
vn 0.599369 0.751210 -0.276478
vn 0.477813 0.186878 0.858354
vn 0.477813 0.186878 0.858354
vn 0.477813 0.186878 0.858354
vn 0.559417 0.453117 0.694074
vn 0.559417 0.453117 0.694074
vn 0.559417 0.453117 0.694074
vn 0.692300 0.061302 0.719001
vn 0.692300 0.061302 0.719001
vn 0.692300 0.061302 0.719001
vn 0.864294 0.477010 0.159554
vn 0.864294 0.477010 0.159554
vn 0.864294 0.477010 0.159554
vn 0.710304 0.649858 -0.270468
vn 0.710304 0.649858 -0.270468
vn 0.710304 0.649858 -0.270468
vn 0.778045 0.514515 0.360444
vn 0.778045 0.514515 0.360444
vn 0.778045 0.514515 0.360444
vn 0.921535 0.343507 0.181039
vn 0.921535 0.343507 0.181039
vn 0.921535 0.343507 0.181039
vn -0.082623 0.729622 -0.678841
vn -0.082623 0.729622 -0.678841
vn -0.082623 0.729622 -0.678841
vn -0.323591 0.708829 -0.626778
vn -0.323591 0.708829 -0.626778
vn -0.323591 0.708829 -0.626778
vn -0.190875 0.770133 -0.608655
vn -0.190875 0.770133 -0.608655
vn -0.190875 0.770133 -0.608655
vn -0.189933 0.772665 -0.605734
vn -0.189933 0.772665 -0.605734
vn -0.189933 0.772665 -0.605734
vn 0.960432 0.253797 0.114710
vn 0.960432 0.253797 0.114710
vn 0.960432 0.253797 0.114710
vn 0.546979 0.832253 -0.090381
vn 0.546979 0.832253 -0.090381
vn 0.546979 0.832253 -0.090381
vn 0.834107 0.414043 -0.364464
vn 0.834107 0.414043 -0.364464
vn 0.834107 0.414043 -0.364464
vn 0.733739 0.635097 0.241410
vn 0.733739 0.635097 0.241410
vn 0.733739 0.635097 0.241410
vn 0.614030 0.744768 -0.261318
vn 0.614030 0.744768 -0.261318
vn 0.614030 0.744768 -0.261318
vn 0.562545 0.809497 -0.168096
vn 0.562545 0.809497 -0.168096
vn 0.562545 0.809497 -0.168096
vn 0.851432 0.383351 0.357919
vn 0.851432 0.383351 0.357919
vn 0.851432 0.383351 0.357919
vn 0.600776 0.779500 -0.177333
vn 0.600776 0.779500 -0.177333
vn 0.600776 0.779500 -0.177333
vn 0.920229 0.005047 -0.391349
vn 0.920229 0.005047 -0.391349
vn 0.920229 0.005047 -0.391349
vn 0.792483 -0.218411 0.569444
vn 0.792483 -0.218411 0.569444
vn 0.792483 -0.218411 0.569444
vn 0.635557 -0.718090 0.283574
vn 0.635557 -0.718090 0.283574
vn 0.635557 -0.718090 0.283574
vn 0.853000 -0.426443 0.300895
vn 0.853000 -0.426443 0.300895
vn 0.853000 -0.426443 0.300895
vn 0.925227 -0.183687 0.331986
vn 0.925227 -0.183687 0.331986
vn 0.925227 -0.183687 0.331986
vn 0.968704 -0.215103 -0.123868
vn 0.968704 -0.215103 -0.123868
vn 0.968704 -0.215103 -0.123868
vn 0.661617 -0.749692 0.014978
vn 0.661617 -0.749692 0.014978
vn 0.661617 -0.749692 0.014978
vn 0.993779 -0.079458 0.078037
vn 0.993779 -0.079458 0.078037
vn 0.993779 -0.079458 0.078037
vn 0.772020 -0.285965 0.567635
vn 0.772020 -0.285965 0.567635
vn 0.772020 -0.285965 0.567635
vn 0.978992 0.165443 -0.119179
vn 0.978992 0.165443 -0.119179
vn 0.978992 0.165443 -0.119179
vn 0.979410 0.103478 -0.173346
vn 0.979410 0.103478 -0.173346
vn 0.979410 0.103478 -0.173346
vn 0.976063 0.141656 -0.165027
vn 0.976063 0.141656 -0.165027
vn 0.976063 0.141656 -0.165027
vn 0.897034 -0.112938 0.427288
vn 0.897034 -0.112938 0.427288
vn 0.897034 -0.112938 0.427288
vn 0.603433 -0.783586 -0.147857
vn 0.603433 -0.783586 -0.147857
vn 0.603433 -0.783586 -0.147857
vn 0.450804 -0.715160 0.534156
vn 0.450804 -0.715160 0.534156
vn 0.450804 -0.715160 0.534156
vn 0.386247 -0.875876 0.289232
vn 0.386247 -0.875876 0.289232
vn 0.386247 -0.875876 0.289232
vn 0.827156 -0.371441 -0.421716
vn 0.827156 -0.371441 -0.421716
vn 0.827156 -0.371441 -0.421716
vn 0.143837 -0.837170 -0.527691
vn 0.143837 -0.837170 -0.527691
vn 0.143837 -0.837170 -0.527691
vn 0.613928 0.092958 -0.783870
vn 0.613928 0.092958 -0.783870
vn 0.613928 0.092958 -0.783870
vn 0.783883 -0.379168 -0.491690
vn 0.783883 -0.379168 -0.491690
vn 0.783883 -0.379168 -0.491690
vn -0.152154 -0.728108 -0.668362
vn -0.152154 -0.728108 -0.668362
vn -0.152154 -0.728108 -0.668362
vn -0.048157 -0.101678 -0.993651
vn -0.048157 -0.101678 -0.993651
vn -0.048157 -0.101678 -0.993651
vn -0.582013 -0.319610 -0.747736
vn -0.582013 -0.319610 -0.747736
vn -0.582013 -0.319610 -0.747736
vn -0.438022 -0.631249 -0.640048
vn -0.438022 -0.631249 -0.640048
vn -0.438022 -0.631249 -0.640048
vn -0.236717 0.312143 -0.920072
vn -0.236717 0.312143 -0.920072
vn -0.236717 0.312143 -0.920072
vn -0.596448 -0.385822 -0.703840
vn -0.596448 -0.385822 -0.703840
vn -0.596448 -0.385822 -0.703840
vn -0.476143 0.163889 -0.863961
vn -0.476143 0.163889 -0.863961
vn -0.476143 0.163889 -0.863961
vn -0.537078 0.266366 -0.800373
vn -0.537078 0.266366 -0.800373
vn -0.537078 0.266366 -0.800373
vn -0.168408 -0.741110 -0.649919
vn -0.168408 -0.741110 -0.649919
vn -0.168408 -0.741110 -0.649919
vn -0.598434 -0.382673 -0.703873
vn -0.598434 -0.382673 -0.703873
vn -0.598434 -0.382673 -0.703873
vn -0.093445 0.074720 -0.992817
vn -0.093445 0.074720 -0.992817
vn -0.093445 0.074720 -0.992817
vn -0.333640 -0.501670 -0.798130
vn -0.333640 -0.501670 -0.798130
vn -0.333640 -0.501670 -0.798130
vn 0.764417 -0.089748 -0.638446
vn 0.764417 -0.089748 -0.638446
vn 0.764417 -0.089748 -0.638446
vn 0.423999 -0.900815 -0.093580
vn 0.423999 -0.900815 -0.093580
vn 0.423999 -0.900815 -0.093580
vn 0.025159 -0.582593 -0.812374
vn 0.025159 -0.582593 -0.812374
vn 0.025159 -0.582593 -0.812374
vn 0.469118 -0.610267 -0.638360
vn 0.469118 -0.610267 -0.638360
vn 0.469118 -0.610267 -0.638360
vn 0.781800 -0.450317 0.431280
vn 0.781800 -0.450317 0.431280
vn 0.781800 -0.450317 0.431280
vn 0.908834 0.023043 -0.416521
vn 0.908834 0.023043 -0.416521
vn 0.908834 0.023043 -0.416521
vn 0.763563 -0.613656 -0.200990
vn 0.763563 -0.613656 -0.200990
vn 0.763563 -0.613656 -0.200990
vn 0.885269 -0.286396 0.366437
vn 0.885269 -0.286396 0.366437
vn 0.885269 -0.286396 0.366437
vn -0.349049 -0.072210 -0.934318
vn -0.349049 -0.072210 -0.934318
vn -0.349049 -0.072210 -0.934318
vn 0.265258 -0.116542 -0.957108
vn 0.265258 -0.116542 -0.957108
vn 0.265258 -0.116542 -0.957108
vn -0.170140 0.278829 -0.945149
vn -0.170140 0.278829 -0.945149
vn -0.170140 0.278829 -0.945149
vn 0.044414 0.274449 -0.960576
vn 0.044414 0.274449 -0.960576
vn 0.044414 0.274449 -0.960576
vn 0.980589 -0.166601 -0.103391
vn 0.980589 -0.166601 -0.103391
vn 0.980589 -0.166601 -0.103391
vn 0.620309 -0.120428 -0.775057
vn 0.620309 -0.120428 -0.775057
vn 0.620309 -0.120428 -0.775057
vn 0.366399 -0.115531 -0.923257
vn 0.366399 -0.115531 -0.923257
vn 0.366399 -0.115531 -0.923257
vn 0.465699 -0.358257 -0.809182
vn 0.465699 -0.358257 -0.809182
vn 0.465699 -0.358257 -0.809182
vn 0.711298 0.566119 0.416611
vn 0.711298 0.566119 0.416611
vn 0.711298 0.566119 0.416611
vn 0.816541 0.472241 0.332037
vn 0.816541 0.472241 0.332037
vn 0.816541 0.472241 0.332037
vn 0.699941 0.711049 -0.067022
vn 0.699941 0.711049 -0.067022
vn 0.699941 0.711049 -0.067022
vn 0.777386 0.535027 0.330782
vn 0.777386 0.535027 0.330782
vn 0.777386 0.535027 0.330782
vn 0.691699 0.693417 0.201805
vn 0.691699 0.693417 0.201805
vn 0.691699 0.693417 0.201805
vn 0.643725 0.764851 0.024910
vn 0.643725 0.764851 0.024910
vn 0.643725 0.764851 0.024910
vn 0.630119 0.713293 -0.306860
vn 0.630119 0.713293 -0.306860
vn 0.630119 0.713293 -0.306860
vn 0.832285 0.554085 -0.017041
vn 0.832285 0.554085 -0.017041
vn 0.832285 0.554085 -0.017041
vn 0.656431 -0.076080 0.750540
vn 0.656431 -0.076080 0.750540
vn 0.656431 -0.076080 0.750540
vn 0.600428 -0.201913 0.773769
vn 0.600428 -0.201913 0.773769
vn 0.600428 -0.201913 0.773769
vn 0.862284 0.481070 0.158235
vn 0.862284 0.481070 0.158235
vn 0.862284 0.481070 0.158235
vn 0.532287 -0.056123 0.844702
vn 0.532287 -0.056123 0.844702
vn 0.532287 -0.056123 0.844702
vn 0.881928 0.423954 0.206073
vn 0.881928 0.423954 0.206073
vn 0.881928 0.423954 0.206073
vn 0.770870 0.551616 -0.318558
vn 0.770870 0.551616 -0.318558
vn 0.770870 0.551616 -0.318558
vn 0.790131 0.583242 -0.188471
vn 0.790131 0.583242 -0.188471
vn 0.790131 0.583242 -0.188471
vn 0.720329 0.661910 -0.207369
vn 0.720329 0.661910 -0.207369
vn 0.720329 0.661910 -0.207369
vn -0.005102 0.113654 -0.993507
vn -0.005102 0.113654 -0.993507
vn -0.005102 0.113654 -0.993507
vn -0.595940 -0.672638 -0.438649
vn -0.595940 -0.672638 -0.438649
vn -0.595940 -0.672638 -0.438649
vn -0.015295 -0.132543 -0.991059
vn -0.015295 -0.132543 -0.991059
vn -0.015295 -0.132543 -0.991059
vn -0.246295 0.084844 -0.965474
vn -0.246295 0.084844 -0.965474
vn -0.246295 0.084844 -0.965474
vn -0.308039 -0.774690 0.552238
vn -0.308039 -0.774690 0.552238
vn -0.308039 -0.774690 0.552238
vn -0.535721 -0.321586 -0.780760
vn -0.535721 -0.321586 -0.780760
vn -0.535721 -0.321586 -0.780760
vn -0.205099 -0.814146 0.543231
vn -0.205099 -0.814146 0.543231
vn -0.205099 -0.814146 0.543231
vn -0.305853 -0.776937 0.550294
vn -0.305853 -0.776937 0.550294
vn -0.305853 -0.776937 0.550294
vn -0.285864 0.128869 -0.949565
vn -0.285864 0.128869 -0.949565
vn -0.285864 0.128869 -0.949565
vn -0.467260 -0.862377 -0.194870
vn -0.467260 -0.862377 -0.194870
vn -0.467260 -0.862377 -0.194870
vn -0.393109 0.535805 -0.747248
vn -0.393109 0.535805 -0.747248
vn -0.393109 0.535805 -0.747248
vn -0.271833 0.124085 -0.954311
vn -0.271833 0.124085 -0.954311
vn -0.271833 0.124085 -0.954311
vn -0.641151 -0.658618 -0.393887
vn -0.641151 -0.658618 -0.393887
vn -0.641151 -0.658618 -0.393887
vn -0.428930 -0.883151 -0.189903
vn -0.428930 -0.883151 -0.189903
vn -0.428930 -0.883151 -0.189903
vn -0.126460 -0.140442 -0.981980
vn -0.126460 -0.140442 -0.981980
vn -0.126460 -0.140442 -0.981980
vn -0.312613 -0.901167 -0.300285
vn -0.312613 -0.901167 -0.300285
vn -0.312613 -0.901167 -0.300285
vn -0.240820 0.243293 -0.939582
vn -0.240820 0.243293 -0.939582
vn -0.240820 0.243293 -0.939582
vn -0.298398 -0.490183 -0.818950
vn -0.298398 -0.490183 -0.818950
vn -0.298398 -0.490183 -0.818950
vn -0.743900 -0.472063 -0.473042
vn -0.743900 -0.472063 -0.473042
vn -0.743900 -0.472063 -0.473042
vn -0.415375 -0.387494 -0.822990
vn -0.415375 -0.387494 -0.822990
vn -0.415375 -0.387494 -0.822990
vn 0.162754 -0.986252 0.028605
vn 0.162754 -0.986252 0.028605
vn 0.162754 -0.986252 0.028605
vn 0.681272 -0.617004 -0.393922
vn 0.681272 -0.617004 -0.393922
vn 0.681272 -0.617004 -0.393922
vn -0.274584 -0.782486 -0.558856
vn -0.274584 -0.782486 -0.558856
vn -0.274584 -0.782486 -0.558856
vn 0.090424 -0.689495 -0.718624
vn 0.090424 -0.689495 -0.718624
vn 0.090424 -0.689495 -0.718624
vn -0.809608 -0.463662 0.359933
vn -0.809608 -0.463662 0.359933
vn -0.809608 -0.463662 0.359933
vn -0.564078 -0.445527 -0.695213
vn -0.564078 -0.445527 -0.695213
vn -0.564078 -0.445527 -0.695213
vn -0.580176 -0.263476 -0.770698
vn -0.580176 -0.263476 -0.770698
vn -0.580176 -0.263476 -0.770698
vn -0.748358 -0.208887 -0.629545
vn -0.748358 -0.208887 -0.629545
vn -0.748358 -0.208887 -0.629545
vn -0.321332 -0.909147 -0.264949
vn -0.321332 -0.909147 -0.264949
vn -0.321332 -0.909147 -0.264949
vn -0.651887 -0.436597 -0.620021
vn -0.651887 -0.436597 -0.620021
vn -0.651887 -0.436597 -0.620021
vn -0.635453 -0.754474 0.164219
vn -0.635453 -0.754474 0.164219
vn -0.635453 -0.754474 0.164219
vn -0.712165 -0.693791 0.107120
vn -0.712165 -0.693791 0.107120
vn -0.712165 -0.693791 0.107120
vn -0.094043 -0.101345 -0.990396
vn -0.094043 -0.101345 -0.990396
vn -0.094043 -0.101345 -0.990396
vn -0.005104 -0.104673 -0.994494
vn -0.005104 -0.104673 -0.994494
vn -0.005104 -0.104673 -0.994494
vn -0.210832 -0.384203 -0.898854
vn -0.210832 -0.384203 -0.898854
vn -0.210832 -0.384203 -0.898854
vn -0.094955 -0.100016 -0.990445
vn -0.094955 -0.100016 -0.990445
vn -0.094955 -0.100016 -0.990445
vn -0.318875 0.072790 -0.944998
vn -0.318875 0.072790 -0.944998
vn -0.318875 0.072790 -0.944998
vn -0.488303 0.456727 -0.743613
vn -0.488303 0.456727 -0.743613
vn -0.488303 0.456727 -0.743613
vn -0.842618 -0.067166 -0.534307
vn -0.842618 -0.067166 -0.534307
vn -0.842618 -0.067166 -0.534307
vn -0.521995 0.459966 -0.718298
vn -0.521995 0.459966 -0.718298
vn -0.521995 0.459966 -0.718298
vn -0.547782 -0.402151 -0.733627
vn -0.547782 -0.402151 -0.733627
vn -0.547782 -0.402151 -0.733627
vn -0.360497 -0.388628 -0.847945
vn -0.360497 -0.388628 -0.847945
vn -0.360497 -0.388628 -0.847945
vn -0.321919 0.176450 -0.930179
vn -0.321919 0.176450 -0.930179
vn -0.321919 0.176450 -0.930179
vn -0.563478 -0.380397 -0.733342
vn -0.563478 -0.380397 -0.733342
vn -0.563478 -0.380397 -0.733342
vn -0.111350 0.067578 -0.991481
vn -0.111350 0.067578 -0.991481
vn -0.111350 0.067578 -0.991481
vn -0.182181 -0.069606 -0.980798
vn -0.182181 -0.069606 -0.980798
vn -0.182181 -0.069606 -0.980798
vn -0.411947 -0.066783 -0.908757
vn -0.411947 -0.066783 -0.908757
vn -0.411947 -0.066783 -0.908757
vn -0.183444 -0.067358 -0.980720
vn -0.183444 -0.067358 -0.980720
vn -0.183444 -0.067358 -0.980720
vn -0.668847 -0.287007 -0.685763
vn -0.668847 -0.287007 -0.685763
vn -0.668847 -0.287007 -0.685763
vn -0.725596 -0.492605 -0.480469
vn -0.725596 -0.492605 -0.480469
vn -0.725596 -0.492605 -0.480469
vn -0.028761 -0.963286 0.266932
vn -0.028761 -0.963286 0.266932
vn -0.028761 -0.963286 0.266932
vn -0.411736 -0.572853 -0.708740
vn -0.411736 -0.572853 -0.708740
vn -0.411736 -0.572853 -0.708740
vn -0.899621 -0.413840 -0.139350
vn -0.899621 -0.413840 -0.139350
vn -0.899621 -0.413840 -0.139350
vn -0.895664 0.436638 -0.084462
vn -0.895664 0.436638 -0.084462
vn -0.895664 0.436638 -0.084462
vn -0.821149 0.288041 0.492693
vn -0.821149 0.288041 0.492693
vn -0.821149 0.288041 0.492693
vn -0.884813 0.463548 -0.047212
vn -0.884813 0.463548 -0.047212
vn -0.884813 0.463548 -0.047212
vn -0.652339 -0.751020 0.102093
vn -0.652339 -0.751020 0.102093
vn -0.652339 -0.751020 0.102093
vn -0.877955 0.052552 0.475850
vn -0.877955 0.052552 0.475850
vn -0.877955 0.052552 0.475850
vn -0.353766 0.506311 -0.786447
vn -0.353766 0.506311 -0.786447
vn -0.353766 0.506311 -0.786447
vn -0.985193 -0.157737 0.067182
vn -0.985193 -0.157737 0.067182
vn -0.985193 -0.157737 0.067182
vn -0.687770 -0.546120 -0.478253
vn -0.687770 -0.546120 -0.478253
vn -0.687770 -0.546120 -0.478253
vn -0.933410 0.174914 0.313291
vn -0.933410 0.174914 0.313291
vn -0.933410 0.174914 0.313291
vn -0.488058 -0.769386 0.412121
vn -0.488058 -0.769386 0.412121
vn -0.488058 -0.769386 0.412121
vn -0.438770 -0.865947 0.240035
vn -0.438770 -0.865947 0.240035
vn -0.438770 -0.865947 0.240035
f 1//1 2//2 3//3
f 4//4 5//5 6//6
f 7//7 8//8 9//9
f 10//10 11//11 12//12
f 13//13 14//14 15//15
f 16//16 17//17 18//18
f 19//19 20//20 21//21
f 22//22 23//23 24//24
f 25//25 26//26 27//27
f 28//28 29//29 30//30
f 31//31 32//32 33//33
f 34//34 35//35 36//36
f 37//37 38//38 39//39
f 40//40 41//41 42//42
f 43//43 44//44 45//45
f 46//46 47//47 48//48
f 49//49 50//50 51//51
f 52//52 53//53 54//54
f 55//55 56//56 57//57
f 58//58 59//59 60//60
f 61//61 62//62 63//63
f 64//64 65//65 66//66
f 67//67 68//68 69//69
f 70//70 71//71 72//72
f 73//73 74//74 75//75
f 76//76 77//77 78//78
f 79//79 80//80 81//81
f 82//82 83//83 84//84
f 85//85 86//86 87//87
f 88//88 89//89 90//90
f 91//91 92//92 93//93
f 94//94 95//95 96//96
f 97//97 98//98 99//99
f 100//100 101//101 102//102
f 103//103 104//104 105//105
f 106//106 107//107 108//108
f 109//109 110//110 111//111
f 112//112 113//113 114//114
f 115//115 116//116 117//117
f 118//118 119//119 120//120
f 121//121 122//122 123//123
f 124//124 125//125 126//126
f 127//127 128//128 129//129
f 130//130 131//131 132//132
f 133//133 134//134 135//135
f 136//136 137//137 138//138
f 139//139 140//140 141//141
f 142//142 143//143 144//144
f 145//145 146//146 147//147
f 148//148 149//149 150//150
f 151//151 152//152 153//153
f 154//154 155//155 156//156
f 157//157 158//158 159//159
f 160//160 161//161 162//162
f 163//163 164//164 165//165
f 166//166 167//167 168//168
f 169//169 170//170 171//171
f 172//172 173//173 174//174
f 175//175 176//176 177//177
f 178//178 179//179 180//180
f 181//181 182//182 183//183
f 184//184 185//185 186//186
f 187//187 188//188 189//189
f 190//190 191//191 192//192
f 193//193 194//194 195//195
f 196//196 197//197 198//198
f 199//199 200//200 201//201
f 202//202 203//203 204//204
f 205//205 206//206 207//207
f 208//208 209//209 210//210
f 211//211 212//212 213//213
f 214//214 215//215 216//216
f 217//217 218//218 219//219
f 220//220 221//221 222//222
f 223//223 224//224 225//225
f 226//226 227//227 228//228
f 229//229 230//230 231//231
f 232//232 233//233 234//234
f 235//235 236//236 237//237
f 238//238 239//239 240//240
f 241//241 242//242 243//243
f 244//244 245//245 246//246
f 247//247 248//248 249//249
f 250//250 251//251 252//252
f 253//253 254//254 255//255
f 256//256 257//257 258//258
f 259//259 260//260 261//261
f 262//262 263//263 264//264
f 265//265 266//266 267//267
f 268//268 269//269 270//270
f 271//271 272//272 273//273
f 274//274 275//275 276//276
f 277//277 278//278 279//279
f 280//280 281//281 282//282
f 283//283 284//284 285//285
f 286//286 287//287 288//288
f 289//289 290//290 291//291
f 292//292 293//293 294//294
f 295//295 296//296 297//297
f 298//298 299//299 300//300
f 301//301 302//302 303//303
f 304//304 305//305 306//306
f 307//307 308//308 309//309
f 310//310 311//311 312//312
f 313//313 314//314 315//315
f 316//316 317//317 318//318
f 319//319 320//320 321//321
f 322//322 323//323 324//324
f 325//325 326//326 327//327
f 328//328 329//329 330//330
f 331//331 332//332 333//333
f 334//334 335//335 336//336
f 337//337 338//338 339//339
f 340//340 341//341 342//342
f 343//343 344//344 345//345
f 346//346 347//347 348//348
f 349//349 350//350 351//351
f 352//352 353//353 354//354
f 355//355 356//356 357//357
f 358//358 359//359 360//360
f 361//361 362//362 363//363
f 364//364 365//365 366//366
f 367//367 368//368 369//369
f 370//370 371//371 372//372
f 373//373 374//374 375//375
f 376//376 377//377 378//378
f 379//379 380//380 381//381
f 382//382 383//383 384//384
f 385//385 386//386 387//387
f 388//388 389//389 390//390
f 391//391 392//392 393//393
f 394//394 395//395 396//396
f 397//397 398//398 399//399
f 400//400 401//401 402//402
f 403//403 404//404 405//405
f 406//406 407//407 408//408
f 409//409 410//410 411//411
f 412//412 413//413 414//414
f 415//415 416//416 417//417
f 418//418 419//419 420//420
f 421//421 422//422 423//423
f 424//424 425//425 426//426
f 427//427 428//428 429//429
f 430//430 431//431 432//432
f 433//433 434//434 435//435
f 436//436 437//437 438//438
f 439//439 440//440 441//441
f 442//442 443//443 444//444
f 445//445 446//446 447//447
f 448//448 449//449 450//450
f 451//451 452//452 453//453
f 454//454 455//455 456//456
f 457//457 458//458 459//459
f 460//460 461//461 462//462
f 463//463 464//464 465//465
f 466//466 467//467 468//468
f 469//469 470//470 471//471
f 472//472 473//473 474//474
f 475//475 476//476 477//477
f 478//478 479//479 480//480
f 481//481 482//482 483//483
f 484//484 485//485 486//486
f 487//487 488//488 489//489
f 490//490 491//491 492//492
f 493//493 494//494 495//495
f 496//496 497//497 498//498
f 499//499 500//500 501//501
f 502//502 503//503 504//504
f 505//505 506//506 507//507
f 508//508 509//509 510//510
f 511//511 512//512 513//513
f 514//514 515//515 516//516
f 517//517 518//518 519//519
f 520//520 521//521 522//522
f 523//523 524//524 525//525
f 526//526 527//527 528//528
f 529//529 530//530 531//531
f 532//532 533//533 534//534
f 535//535 536//536 537//537
f 538//538 539//539 540//540
f 541//541 542//542 543//543
f 544//544 545//545 546//546
f 547//547 548//548 549//549
f 550//550 551//551 552//552
f 553//553 554//554 555//555
f 556//556 557//557 558//558
f 559//559 560//560 561//561
f 562//562 563//563 564//564
f 565//565 566//566 567//567
f 568//568 569//569 570//570
f 571//571 572//572 573//573
f 574//574 575//575 576//576
f 577//577 578//578 579//579
f 580//580 581//581 582//582
f 583//583 584//584 585//585
f 586//586 587//587 588//588
f 589//589 590//590 591//591
f 592//592 593//593 594//594
f 595//595 596//596 597//597
f 598//598 599//599 600//600
f 601//601 602//602 603//603
f 604//604 605//605 606//606
f 607//607 608//608 609//609
f 610//610 611//611 612//612
f 613//613 614//614 615//615
f 616//616 617//617 618//618
f 619//619 620//620 621//621
f 622//622 623//623 624//624
f 625//625 626//626 627//627
f 628//628 629//629 630//630
f 631//631 632//632 633//633
f 634//634 635//635 636//636
f 637//637 638//638 639//639
f 640//640 641//641 642//642
f 643//643 644//644 645//645
f 646//646 647//647 648//648
f 649//649 650//650 651//651
f 652//652 653//653 654//654
f 655//655 656//656 657//657
f 658//658 659//659 660//660
f 661//661 662//662 663//663
f 664//664 665//665 666//666
f 667//667 668//668 669//669
f 670//670 671//671 672//672
f 673//673 674//674 675//675
f 676//676 677//677 678//678
f 679//679 680//680 681//681
f 682//682 683//683 684//684
f 685//685 686//686 687//687
f 688//688 689//689 690//690
f 691//691 692//692 693//693
f 694//694 695//695 696//696
f 697//697 698//698 699//699
f 700//700 701//701 702//702
f 703//703 704//704 705//705
f 706//706 707//707 708//708
f 709//709 710//710 711//711
f 712//712 713//713 714//714
f 715//715 716//716 717//717
f 718//718 719//719 720//720
f 721//721 722//722 723//723
f 724//724 725//725 726//726
f 727//727 728//728 729//729
f 730//730 731//731 732//732
f 733//733 734//734 735//735
f 736//736 737//737 738//738
f 739//739 740//740 741//741
f 742//742 743//743 744//744
f 745//745 746//746 747//747
f 748//748 749//749 750//750
f 751//751 752//752 753//753
f 754//754 755//755 756//756
f 757//757 758//758 759//759
f 760//760 761//761 762//762
f 763//763 764//764 765//765
f 766//766 767//767 768//768
f 769//769 770//770 771//771
f 772//772 773//773 774//774
f 775//775 776//776 777//777
f 778//778 779//779 780//780
f 781//781 782//782 783//783
f 784//784 785//785 786//786
f 787//787 788//788 789//789
f 790//790 791//791 792//792
f 793//793 794//794 795//795
f 796//796 797//797 798//798
f 799//799 800//800 801//801
f 802//802 803//803 804//804
f 805//805 806//806 807//807
f 808//808 809//809 810//810
f 811//811 812//812 813//813
f 814//814 815//815 816//816
f 817//817 818//818 819//819
f 820//820 821//821 822//822
f 823//823 824//824 825//825
f 826//826 827//827 828//828
f 829//829 830//830 831//831
f 832//832 833//833 834//834
f 835//835 836//836 837//837
f 838//838 839//839 840//840
f 841//841 842//842 843//843
f 844//844 845//845 846//846
f 847//847 848//848 849//849
f 850//850 851//851 852//852
f 853//853 854//854 855//855
f 856//856 857//857 858//858
f 859//859 860//860 861//861
f 862//862 863//863 864//864
f 865//865 866//866 867//867
f 868//868 869//869 870//870
f 871//871 872//872 873//873
f 874//874 875//875 876//876
f 877//877 878//878 879//879
f 880//880 881//881 882//882
f 883//883 884//884 885//885
f 886//886 887//887 888//888
f 889//889 890//890 891//891
f 892//892 893//893 894//894
f 895//895 896//896 897//897
f 898//898 899//899 900//900
f 901//901 902//902 903//903
f 904//904 905//905 906//906
f 907//907 908//908 909//909
f 910//910 911//911 912//912
f 913//913 914//914 915//915
f 916//916 917//917 918//918
f 919//919 920//920 921//921
f 922//922 923//923 924//924
f 925//925 926//926 927//927
f 928//928 929//929 930//930
f 931//931 932//932 933//933
f 934//934 935//935 936//936
f 937//937 938//938 939//939
f 940//940 941//941 942//942
f 943//943 944//944 945//945
f 946//946 947//947 948//948
f 949//949 950//950 951//951
f 952//952 953//953 954//954
f 955//955 956//956 957//957
f 958//958 959//959 960//960
