# Generated by tools/generate_models.py -- do not edit by hand.
# Deterministic output; regenerate with: python3 tools/generate_models.py
v 0.000000 0.950000 0.000000
v 0.129443 0.830000 0.094046
v 0.160000 0.830000 0.000000
v 0.000000 0.950000 0.000000
v 0.049443 0.830000 0.152169
v 0.129443 0.830000 0.094046
v 0.000000 0.950000 0.000000
v -0.049443 0.830000 0.152169
v 0.049443 0.830000 0.152169
v 0.000000 0.950000 0.000000
v -0.129443 0.830000 0.094046
v -0.049443 0.830000 0.152169
v 0.000000 0.950000 0.000000
v -0.160000 0.830000 0.000000
v -0.129443 0.830000 0.094046
v 0.000000 0.950000 0.000000
v -0.129443 0.830000 -0.094046
v -0.160000 0.830000 0.000000
v 0.000000 0.950000 0.000000
v -0.049443 0.830000 -0.152169
v -0.129443 0.830000 -0.094046
v 0.000000 0.950000 0.000000
v 0.049443 0.830000 -0.152169
v -0.049443 0.830000 -0.152169
v 0.000000 0.950000 0.000000
v 0.129443 0.830000 -0.094046
v 0.049443 0.830000 -0.152169
v 0.000000 0.950000 0.000000
v 0.160000 0.830000 0.000000
v 0.129443 0.830000 -0.094046
v 0.129443 0.830000 0.094046
v 0.275066 0.450000 0.199847
v 0.340000 0.450000 0.000000
v 0.160000 0.830000 0.000000
v 0.049443 0.830000 0.152169
v 0.105066 0.450000 0.323359
v 0.275066 0.450000 0.199847
v 0.129443 0.830000 0.094046
v -0.049443 0.830000 0.152169
v -0.105066 0.450000 0.323359
v 0.105066 0.450000 0.323359
v 0.049443 0.830000 0.152169
v -0.129443 0.830000 0.094046
v -0.275066 0.450000 0.199847
v -0.105066 0.450000 0.323359
v -0.049443 0.830000 0.152169
v -0.160000 0.830000 0.000000
v -0.340000 0.450000 0.000000
v -0.275066 0.450000 0.199847
v -0.129443 0.830000 0.094046
v -0.129443 0.830000 -0.094046
v -0.275066 0.450000 -0.199847
v -0.340000 0.450000 0.000000
v -0.160000 0.830000 0.000000
v -0.049443 0.830000 -0.152169
v -0.105066 0.450000 -0.323359
v -0.275066 0.450000 -0.199847
v -0.129443 0.830000 -0.094046
v 0.049443 0.830000 -0.152169
v 0.105066 0.450000 -0.323359
v -0.105066 0.450000 -0.323359
v -0.049443 0.830000 -0.152169
v 0.129443 0.830000 -0.094046
v 0.275066 0.450000 -0.199847
v 0.105066 0.450000 -0.323359
v 0.049443 0.830000 -0.152169
v 0.160000 0.830000 0.000000
v 0.340000 0.450000 0.000000
v 0.275066 0.450000 -0.199847
v 0.129443 0.830000 -0.094046
v 0.275066 0.450000 0.199847
v 0.291246 -0.350000 0.211603
v 0.360000 -0.350000 0.000000
v 0.340000 0.450000 0.000000
v 0.105066 0.450000 0.323359
v 0.111246 -0.350000 0.342380
v 0.291246 -0.350000 0.211603
v 0.275066 0.450000 0.199847
v -0.105066 0.450000 0.323359
v -0.111246 -0.350000 0.342380
v 0.111246 -0.350000 0.342380
v 0.105066 0.450000 0.323359
v -0.275066 0.450000 0.199847
v -0.291246 -0.350000 0.211603
v -0.111246 -0.350000 0.342380
v -0.105066 0.450000 0.323359
v -0.340000 0.450000 0.000000
v -0.360000 -0.350000 0.000000
v -0.291246 -0.350000 0.211603
v -0.275066 0.450000 0.199847
v -0.275066 0.450000 -0.199847
v -0.291246 -0.350000 -0.211603
v -0.360000 -0.350000 0.000000
v -0.340000 0.450000 0.000000
v -0.105066 0.450000 -0.323359
v -0.111246 -0.350000 -0.342380
v -0.291246 -0.350000 -0.211603
v -0.275066 0.450000 -0.199847
v 0.105066 0.450000 -0.323359
v 0.111246 -0.350000 -0.342380
v -0.111246 -0.350000 -0.342380
v -0.105066 0.450000 -0.323359
v 0.275066 0.450000 -0.199847
v 0.291246 -0.350000 -0.211603
v 0.111246 -0.350000 -0.342380
v 0.105066 0.450000 -0.323359
v 0.340000 0.450000 0.000000
v 0.360000 -0.350000 0.000000
v 0.291246 -0.350000 -0.211603
v 0.275066 0.450000 -0.199847
v 0.291246 -0.350000 0.211603
v 0.194164 -0.620000 0.141068
v 0.240000 -0.620000 0.000000
v 0.360000 -0.350000 0.000000
v 0.111246 -0.350000 0.342380
v 0.074164 -0.620000 0.228254
v 0.194164 -0.620000 0.141068
v 0.291246 -0.350000 0.211603
v -0.111246 -0.350000 0.342380
v -0.074164 -0.620000 0.228254
v 0.074164 -0.620000 0.228254
v 0.111246 -0.350000 0.342380
v -0.291246 -0.350000 0.211603
v -0.194164 -0.620000 0.141068
v -0.074164 -0.620000 0.228254
v -0.111246 -0.350000 0.342380
v -0.360000 -0.350000 0.000000
v -0.240000 -0.620000 0.000000
v -0.194164 -0.620000 0.141068
v -0.291246 -0.350000 0.211603
v -0.291246 -0.350000 -0.211603
v -0.194164 -0.620000 -0.141068
v -0.240000 -0.620000 0.000000
v -0.360000 -0.350000 0.000000
v -0.111246 -0.350000 -0.342380
v -0.074164 -0.620000 -0.228254
v -0.194164 -0.620000 -0.141068
v -0.291246 -0.350000 -0.211603
v 0.111246 -0.350000 -0.342380
v 0.074164 -0.620000 -0.228254
v -0.074164 -0.620000 -0.228254
v -0.111246 -0.350000 -0.342380
v 0.291246 -0.350000 -0.211603
v 0.194164 -0.620000 -0.141068
v 0.074164 -0.620000 -0.228254
v 0.111246 -0.350000 -0.342380
v 0.360000 -0.350000 0.000000
v 0.240000 -0.620000 0.000000
v 0.194164 -0.620000 -0.141068
v 0.291246 -0.350000 -0.211603
v 0.000000 -0.620000 0.000000
v 0.240000 -0.500000 0.000000
v 0.194164 -0.500000 0.141068
v 0.000000 -0.620000 0.000000
v 0.194164 -0.500000 0.141068
v 0.074164 -0.500000 0.228254
v 0.000000 -0.620000 0.000000
v 0.074164 -0.500000 0.228254
v -0.074164 -0.500000 0.228254
v 0.000000 -0.620000 0.000000
v -0.074164 -0.500000 0.228254
v -0.194164 -0.500000 0.141068
v 0.000000 -0.620000 0.000000
v -0.194164 -0.500000 0.141068
v -0.240000 -0.500000 0.000000
v 0.000000 -0.620000 0.000000
v -0.240000 -0.500000 0.000000
v -0.194164 -0.500000 -0.141068
v 0.000000 -0.620000 0.000000
v -0.194164 -0.500000 -0.141068
v -0.074164 -0.500000 -0.228254
v 0.000000 -0.620000 0.000000
v -0.074164 -0.500000 -0.228254
v 0.074164 -0.500000 -0.228254
v 0.000000 -0.620000 0.000000
v 0.074164 -0.500000 -0.228254
v 0.194164 -0.500000 -0.141068
v 0.000000 -0.620000 0.000000
v 0.194164 -0.500000 -0.141068
v 0.240000 -0.500000 0.000000
v 0.194164 -0.620000 0.141068
v 0.242705 -0.780000 0.176336
v 0.300000 -0.780000 0.000000
v 0.240000 -0.620000 0.000000
v 0.074164 -0.620000 0.228254
v 0.092705 -0.780000 0.285317
v 0.242705 -0.780000 0.176336
v 0.194164 -0.620000 0.141068
v -0.074164 -0.620000 0.228254
v -0.092705 -0.780000 0.285317
v 0.092705 -0.780000 0.285317
v 0.074164 -0.620000 0.228254
v -0.194164 -0.620000 0.141068
v -0.242705 -0.780000 0.176336
v -0.092705 -0.780000 0.285317
v -0.074164 -0.620000 0.228254
v -0.240000 -0.620000 0.000000
v -0.300000 -0.780000 0.000000
v -0.242705 -0.780000 0.176336
v -0.194164 -0.620000 0.141068
v -0.194164 -0.620000 -0.141068
v -0.242705 -0.780000 -0.176336
v -0.300000 -0.780000 0.000000
v -0.240000 -0.620000 0.000000
v -0.074164 -0.620000 -0.228254
v -0.092705 -0.780000 -0.285317
v -0.242705 -0.780000 -0.176336
v -0.194164 -0.620000 -0.141068
v 0.074164 -0.620000 -0.228254
v 0.092705 -0.780000 -0.285317
v -0.092705 -0.780000 -0.285317
v -0.074164 -0.620000 -0.228254
v 0.194164 -0.620000 -0.141068
v 0.242705 -0.780000 -0.176336
v 0.092705 -0.780000 -0.285317
v 0.074164 -0.620000 -0.228254
v 0.240000 -0.620000 0.000000
v 0.300000 -0.780000 0.000000
v 0.242705 -0.780000 -0.176336
v 0.194164 -0.620000 -0.141068
v 0.242705 -0.780000 0.176336
v 0.177984 -0.800000 0.129313
v 0.220000 -0.800000 0.000000
v 0.300000 -0.780000 0.000000
v 0.092705 -0.780000 0.285317
v 0.067984 -0.800000 0.209232
v 0.177984 -0.800000 0.129313
v 0.242705 -0.780000 0.176336
v -0.092705 -0.780000 0.285317
v -0.067984 -0.800000 0.209232
v 0.067984 -0.800000 0.209232
v 0.092705 -0.780000 0.285317
v -0.242705 -0.780000 0.176336
v -0.177984 -0.800000 0.129313
v -0.067984 -0.800000 0.209232
v -0.092705 -0.780000 0.285317
v -0.300000 -0.780000 0.000000
v -0.220000 -0.800000 0.000000
v -0.177984 -0.800000 0.129313
v -0.242705 -0.780000 0.176336
v -0.242705 -0.780000 -0.176336
v -0.177984 -0.800000 -0.129313
v -0.220000 -0.800000 0.000000
v -0.300000 -0.780000 0.000000
v -0.092705 -0.780000 -0.285317
v -0.067984 -0.800000 -0.209232
v -0.177984 -0.800000 -0.129313
v -0.242705 -0.780000 -0.176336
v 0.092705 -0.780000 -0.285317
v 0.067984 -0.800000 -0.209232
v -0.067984 -0.800000 -0.209232
v -0.092705 -0.780000 -0.285317
v 0.242705 -0.780000 -0.176336
v 0.177984 -0.800000 -0.129313
v 0.067984 -0.800000 -0.209232
v 0.092705 -0.780000 -0.285317
v 0.300000 -0.780000 0.000000
v 0.220000 -0.800000 0.000000
v 0.177984 -0.800000 -0.129313
v 0.242705 -0.780000 -0.176336
v 0.400000 -0.150000 0.017500
v 1.080000 -0.150000 0.017500
v 1.180000 0.270000 0.017500
v 0.460000 0.400000 0.017500
v -0.215155 -0.150000 0.337660
v -0.555155 -0.150000 0.926557
v -0.605155 0.270000 1.013160
v -0.245155 0.400000 0.389622
v -0.184845 -0.150000 -0.355160
v -0.524845 -0.150000 -0.944057
v -0.574845 0.270000 -1.030660
v -0.214845 0.400000 -0.407122
vn 0.588913 0.785218 0.191349
vn 0.588913 0.785218 0.191349
vn 0.588913 0.785218 0.191349
vn 0.363968 0.785218 0.500959
vn 0.363968 0.785218 0.500959
vn 0.363968 0.785218 0.500959
vn 0.000000 0.785218 0.619220
vn 0.000000 0.785218 0.619220
vn 0.000000 0.785218 0.619220
vn -0.363968 0.785218 0.500959
vn -0.363968 0.785218 0.500959
vn -0.363968 0.785218 0.500959
vn -0.588913 0.785218 0.191349
vn -0.588913 0.785218 0.191349
vn -0.588913 0.785218 0.191349
vn -0.588913 0.785218 -0.191349
vn -0.588913 0.785218 -0.191349
vn -0.588913 0.785218 -0.191349
vn -0.363968 0.785218 -0.500959
vn -0.363968 0.785218 -0.500959
vn -0.363968 0.785218 -0.500959
vn 0.000000 0.785218 -0.619220
vn 0.000000 0.785218 -0.619220
vn 0.000000 0.785218 -0.619220
vn 0.363968 0.785218 -0.500959
vn 0.363968 0.785218 -0.500959
vn 0.363968 0.785218 -0.500959
vn 0.588913 0.785218 -0.191349
vn 0.588913 0.785218 -0.191349
vn 0.588913 0.785218 -0.191349
vn 0.867126 0.410744 0.281746
vn 0.867126 0.410744 0.281746
vn 0.867126 0.410744 0.281746
vn 0.867126 0.410744 0.281746
vn 0.535914 0.410744 0.737622
vn 0.535914 0.410744 0.737622
vn 0.535914 0.410744 0.737622
vn 0.535914 0.410744 0.737622
vn 0.000000 0.410744 0.911751
vn 0.000000 0.410744 0.911751
vn 0.000000 0.410744 0.911751
vn 0.000000 0.410744 0.911751
vn -0.535914 0.410744 0.737622
vn -0.535914 0.410744 0.737622
vn -0.535914 0.410744 0.737622
vn -0.535914 0.410744 0.737622
vn -0.867126 0.410744 0.281746
vn -0.867126 0.410744 0.281746
vn -0.867126 0.410744 0.281746
vn -0.867126 0.410744 0.281746
vn -0.867126 0.410744 -0.281746
vn -0.867126 0.410744 -0.281746
vn -0.867126 0.410744 -0.281746
vn -0.867126 0.410744 -0.281746
vn -0.535914 0.410744 -0.737622
vn -0.535914 0.410744 -0.737622
vn -0.535914 0.410744 -0.737622
vn -0.535914 0.410744 -0.737622
vn 0.000000 0.410744 -0.911751
vn 0.000000 0.410744 -0.911751
vn 0.000000 0.410744 -0.911751
vn 0.000000 0.410744 -0.911751
vn 0.535914 0.410744 -0.737622
vn 0.535914 0.410744 -0.737622
vn 0.535914 0.410744 -0.737622
vn 0.535914 0.410744 -0.737622
vn 0.867126 0.410744 -0.281746
vn 0.867126 0.410744 -0.281746
vn 0.867126 0.410744 -0.281746
vn 0.867126 0.410744 -0.281746
vn 0.950788 0.023770 0.308930
vn 0.950788 0.023770 0.308930
vn 0.950788 0.023770 0.308930
vn 0.950788 0.023770 0.308930
vn 0.587619 0.023770 0.808788
vn 0.587619 0.023770 0.808788
vn 0.587619 0.023770 0.808788
vn 0.587619 0.023770 0.808788
vn 0.000000 0.023770 0.999717
vn 0.000000 0.023770 0.999717
vn 0.000000 0.023770 0.999717
vn 0.000000 0.023770 0.999717
vn -0.587619 0.023770 0.808788
vn -0.587619 0.023770 0.808788
vn -0.587619 0.023770 0.808788
vn -0.587619 0.023770 0.808788
vn -0.950788 0.023770 0.308930
vn -0.950788 0.023770 0.308930
vn -0.950788 0.023770 0.308930
vn -0.950788 0.023770 0.308930
vn -0.950788 0.023770 -0.308930
vn -0.950788 0.023770 -0.308930
vn -0.950788 0.023770 -0.308930
vn -0.950788 0.023770 -0.308930
vn -0.587619 0.023770 -0.808788
vn -0.587619 0.023770 -0.808788
vn -0.587619 0.023770 -0.808788
vn -0.587619 0.023770 -0.808788
vn -0.000000 0.023770 -0.999717
vn -0.000000 0.023770 -0.999717
vn -0.000000 0.023770 -0.999717
vn -0.000000 0.023770 -0.999717
vn 0.587619 0.023770 -0.808788
vn 0.587619 0.023770 -0.808788
vn 0.587619 0.023770 -0.808788
vn 0.587619 0.023770 -0.808788
vn 0.950788 0.023770 -0.308930
vn 0.950788 0.023770 -0.308930
vn 0.950788 0.023770 -0.308930
vn 0.950788 0.023770 -0.308930
vn 0.876013 -0.389339 0.284634
vn 0.876013 -0.389339 0.284634
vn 0.876013 -0.389339 0.284634
vn 0.876013 -0.389339 0.284634
vn 0.541406 -0.389339 0.745181
vn 0.541406 -0.389339 0.745181
vn 0.541406 -0.389339 0.745181
vn 0.541406 -0.389339 0.745181
vn 0.000000 -0.389339 0.921095
vn 0.000000 -0.389339 0.921095
vn 0.000000 -0.389339 0.921095
vn 0.000000 -0.389339 0.921095
vn -0.541406 -0.389339 0.745181
vn -0.541406 -0.389339 0.745181
vn -0.541406 -0.389339 0.745181
vn -0.541406 -0.389339 0.745181
vn -0.876013 -0.389339 0.284634
vn -0.876013 -0.389339 0.284634
vn -0.876013 -0.389339 0.284634
vn -0.876013 -0.389339 0.284634
vn -0.876013 -0.389339 -0.284634
vn -0.876013 -0.389339 -0.284634
vn -0.876013 -0.389339 -0.284634
vn -0.876013 -0.389339 -0.284634
vn -0.541406 -0.389339 -0.745181
vn -0.541406 -0.389339 -0.745181
vn -0.541406 -0.389339 -0.745181
vn -0.541406 -0.389339 -0.745181
vn -0.000000 -0.389339 -0.921095
vn -0.000000 -0.389339 -0.921095
vn -0.000000 -0.389339 -0.921095
vn -0.000000 -0.389339 -0.921095
vn 0.541406 -0.389339 -0.745181
vn 0.541406 -0.389339 -0.745181
vn 0.541406 -0.389339 -0.745181
vn 0.541406 -0.389339 -0.745181
vn 0.876013 -0.389339 -0.284634
vn 0.876013 -0.389339 -0.284634
vn 0.876013 -0.389339 -0.284634
vn 0.876013 -0.389339 -0.284634
vn 0.442566 -0.885131 0.143798
vn 0.442566 -0.885131 0.143798
vn 0.442566 -0.885131 0.143798
vn 0.273521 -0.885131 0.376469
vn 0.273521 -0.885131 0.376469
vn 0.273521 -0.885131 0.376469
vn 0.000000 -0.885131 0.465341
vn 0.000000 -0.885131 0.465341
vn 0.000000 -0.885131 0.465341
vn -0.273521 -0.885131 0.376469
vn -0.273521 -0.885131 0.376469
vn -0.273521 -0.885131 0.376469
vn -0.442566 -0.885131 0.143798
vn -0.442566 -0.885131 0.143798
vn -0.442566 -0.885131 0.143798
vn -0.442566 -0.885131 -0.143798
vn -0.442566 -0.885131 -0.143798
vn -0.442566 -0.885131 -0.143798
vn -0.273521 -0.885131 -0.376469
vn -0.273521 -0.885131 -0.376469
vn -0.273521 -0.885131 -0.376469
vn -0.000000 -0.885131 -0.465341
vn -0.000000 -0.885131 -0.465341
vn -0.000000 -0.885131 -0.465341
vn 0.273521 -0.885131 -0.376469
vn 0.273521 -0.885131 -0.376469
vn 0.273521 -0.885131 -0.376469
vn 0.442566 -0.885131 -0.143798
vn 0.442566 -0.885131 -0.143798
vn 0.442566 -0.885131 -0.143798
vn 0.895791 0.335921 0.291060
vn 0.895791 0.335921 0.291060
vn 0.895791 0.335921 0.291060
vn 0.895791 0.335921 0.291060
vn 0.553629 0.335921 0.762005
vn 0.553629 0.335921 0.762005
vn 0.553629 0.335921 0.762005
vn 0.553629 0.335921 0.762005
vn 0.000000 0.335921 0.941890
vn 0.000000 0.335921 0.941890
vn 0.000000 0.335921 0.941890
vn 0.000000 0.335921 0.941890
vn -0.553629 0.335921 0.762005
vn -0.553629 0.335921 0.762005
vn -0.553629 0.335921 0.762005
vn -0.553629 0.335921 0.762005
vn -0.895791 0.335921 0.291060
vn -0.895791 0.335921 0.291060
vn -0.895791 0.335921 0.291060
vn -0.895791 0.335921 0.291060
vn -0.895791 0.335921 -0.291060
vn -0.895791 0.335921 -0.291060
vn -0.895791 0.335921 -0.291060
vn -0.895791 0.335921 -0.291060
vn -0.553629 0.335921 -0.762005
vn -0.553629 0.335921 -0.762005
vn -0.553629 0.335921 -0.762005
vn -0.553629 0.335921 -0.762005
vn -0.000000 0.335921 -0.941890
vn -0.000000 0.335921 -0.941890
vn -0.000000 0.335921 -0.941890
vn -0.000000 0.335921 -0.941890
vn 0.553629 0.335921 -0.762005
vn 0.553629 0.335921 -0.762005
vn 0.553629 0.335921 -0.762005
vn 0.553629 0.335921 -0.762005
vn 0.895791 0.335921 -0.291060
vn 0.895791 0.335921 -0.291060
vn 0.895791 0.335921 -0.291060
vn 0.895791 0.335921 -0.291060
vn 0.241786 -0.967144 0.078561
vn 0.241786 -0.967144 0.078561
vn 0.241786 -0.967144 0.078561
vn 0.241786 -0.967144 0.078561
vn 0.149432 -0.967144 0.205675
vn 0.149432 -0.967144 0.205675
vn 0.149432 -0.967144 0.205675
vn 0.149432 -0.967144 0.205675
vn 0.000000 -0.967144 0.254229
vn 0.000000 -0.967144 0.254229
vn 0.000000 -0.967144 0.254229
vn 0.000000 -0.967144 0.254229
vn -0.149432 -0.967144 0.205675
vn -0.149432 -0.967144 0.205675
vn -0.149432 -0.967144 0.205675
vn -0.149432 -0.967144 0.205675
vn -0.241786 -0.967144 0.078561
vn -0.241786 -0.967144 0.078561
vn -0.241786 -0.967144 0.078561
vn -0.241786 -0.967144 0.078561
vn -0.241786 -0.967144 -0.078561
vn -0.241786 -0.967144 -0.078561
vn -0.241786 -0.967144 -0.078561
vn -0.241786 -0.967144 -0.078561
vn -0.149432 -0.967144 -0.205675
vn -0.149432 -0.967144 -0.205675
vn -0.149432 -0.967144 -0.205675
vn -0.149432 -0.967144 -0.205675
vn 0.000000 -0.967144 -0.254229
vn 0.000000 -0.967144 -0.254229
vn 0.000000 -0.967144 -0.254229
vn 0.000000 -0.967144 -0.254229
vn 0.149432 -0.967144 -0.205675
vn 0.149432 -0.967144 -0.205675
vn 0.149432 -0.967144 -0.205675
vn 0.149432 -0.967144 -0.205675
vn 0.241786 -0.967144 -0.078561
vn 0.241786 -0.967144 -0.078561
vn 0.241786 -0.967144 -0.078561
vn 0.241786 -0.967144 -0.078561
vn 0.000000 0.000000 1.000000
vn 0.000000 0.000000 1.000000
vn 0.000000 0.000000 1.000000
vn 0.000000 0.000000 1.000000
vn -0.866025 0.000000 -0.500000
vn -0.866025 0.000000 -0.500000
vn -0.866025 0.000000 -0.500000
vn -0.866025 0.000000 -0.500000
vn 0.866025 0.000000 -0.500000
vn 0.866025 0.000000 -0.500000
vn 0.866025 0.000000 -0.500000
vn 0.866025 0.000000 -0.500000
f 1//1 2//2 3//3
f 4//4 5//5 6//6
f 7//7 8//8 9//9
f 10//10 11//11 12//12
f 13//13 14//14 15//15
f 16//16 17//17 18//18
f 19//19 20//20 21//21
f 22//22 23//23 24//24
f 25//25 26//26 27//27
f 28//28 29//29 30//30
f 31//31 32//32 33//33
f 31//31 33//33 34//34
f 35//35 36//36 37//37
f 35//35 37//37 38//38
f 39//39 40//40 41//41
f 39//39 41//41 42//42
f 43//43 44//44 45//45
f 43//43 45//45 46//46
f 47//47 48//48 49//49
f 47//47 49//49 50//50
f 51//51 52//52 53//53
f 51//51 53//53 54//54
f 55//55 56//56 57//57
f 55//55 57//57 58//58
f 59//59 60//60 61//61
f 59//59 61//61 62//62
f 63//63 64//64 65//65
f 63//63 65//65 66//66
f 67//67 68//68 69//69
f 67//67 69//69 70//70
f 71//71 72//72 73//73
f 71//71 73//73 74//74
f 75//75 76//76 77//77
f 75//75 77//77 78//78
f 79//79 80//80 81//81
f 79//79 81//81 82//82
f 83//83 84//84 85//85
f 83//83 85//85 86//86
f 87//87 88//88 89//89
f 87//87 89//89 90//90
f 91//91 92//92 93//93
f 91//91 93//93 94//94
f 95//95 96//96 97//97
f 95//95 97//97 98//98
f 99//99 100//100 101//101
f 99//99 101//101 102//102
f 103//103 104//104 105//105
f 103//103 105//105 106//106
f 107//107 108//108 109//109
f 107//107 109//109 110//110
f 111//111 112//112 113//113
f 111//111 113//113 114//114
f 115//115 116//116 117//117
f 115//115 117//117 118//118
f 119//119 120//120 121//121
f 119//119 121//121 122//122
f 123//123 124//124 125//125
f 123//123 125//125 126//126
f 127//127 128//128 129//129
f 127//127 129//129 130//130
f 131//131 132//132 133//133
f 131//131 133//133 134//134
f 135//135 136//136 137//137
f 135//135 137//137 138//138
f 139//139 140//140 141//141
f 139//139 141//141 142//142
f 143//143 144//144 145//145
f 143//143 145//145 146//146
f 147//147 148//148 149//149
f 147//147 149//149 150//150
f 151//151 152//152 153//153
f 154//154 155//155 156//156
f 157//157 158//158 159//159
f 160//160 161//161 162//162
f 163//163 164//164 165//165
f 166//166 167//167 168//168
f 169//169 170//170 171//171
f 172//172 173//173 174//174
f 175//175 176//176 177//177
f 178//178 179//179 180//180
f 181//181 182//182 183//183
f 181//181 183//183 184//184
f 185//185 186//186 187//187
f 185//185 187//187 188//188
f 189//189 190//190 191//191
f 189//189 191//191 192//192
f 193//193 194//194 195//195
f 193//193 195//195 196//196
f 197//197 198//198 199//199
f 197//197 199//199 200//200
f 201//201 202//202 203//203
f 201//201 203//203 204//204
f 205//205 206//206 207//207
f 205//205 207//207 208//208
f 209//209 210//210 211//211
f 209//209 211//211 212//212
f 213//213 214//214 215//215
f 213//213 215//215 216//216
f 217//217 218//218 219//219
f 217//217 219//219 220//220
f 221//221 222//222 223//223
f 221//221 223//223 224//224
f 225//225 226//226 227//227
f 225//225 227//227 228//228
f 229//229 230//230 231//231
f 229//229 231//231 232//232
f 233//233 234//234 235//235
f 233//233 235//235 236//236
f 237//237 238//238 239//239
f 237//237 239//239 240//240
f 241//241 242//242 243//243
f 241//241 243//243 244//244
f 245//245 246//246 247//247
f 245//245 247//247 248//248
f 249//249 250//250 251//251
f 249//249 251//251 252//252
f 253//253 254//254 255//255
f 253//253 255//255 256//256
f 257//257 258//258 259//259
f 257//257 259//259 260//260
f 261//261 262//262 263//263
f 261//261 263//263 264//264
f 264//264 263//263 262//262
f 264//264 262//262 261//261
f 265//265 266//266 267//267
f 265//265 267//267 268//268
f 268//268 267//267 266//266
f 268//268 266//266 265//265
f 269//269 270//270 271//271
f 269//269 271//271 272//272
f 272//272 271//271 270//270
f 272//272 270//270 269//269
